<?xml version="1.0" encoding="UTF-8"?>
<svg width="524px" height="524px" viewBox="0 0 524 524" version="1.1" xmlns="http://www.w3.org/2000/svg" xmlns:xlink="http://www.w3.org/1999/xlink">
    <title>enso logo icon - dark</title>
    <g id="enso-logo-icon---dark" stroke="none" stroke-width="1" fill="none" fill-rule="evenodd">
        <path d="M413.848018,315.114707 C413.904779,314.942376 413.662927,314.844972 413.586424,315.00981 C386.987725,372.72577 333.780456,412.714097 265.277331,412.714097 C192.536874,412.714097 124.384186,356.34182 124.384186,270.126279 C124.384186,195.849043 181.39691,134.169466 247.582706,134.169466 C303.284991,134.169466 341.949104,168.655682 341.949104,193.194144 C341.949104,204.470597 334.740457,212.427802 323.600494,212.427802 C298.043236,212.427802 288.213711,166.00328 239.720073,166.00328 C190.569982,166.00328 148.631005,213.754003 148.631005,270.126279 C148.631005,343.079812 205.643729,390.830534 262.656453,390.830534 C284.941316,390.830534 297.307811,384.898845 300.878818,382.875827 C301.02689,382.79091 300.930643,382.563633 300.770232,382.613584 C297.218967,383.744976 286.059261,386.849434 270.519086,386.849434 C200.399506,386.849434 172.221371,331.803359 172.221371,295.990941 C172.221371,268.800078 189.259543,257.526123 203.022852,257.526123 C239.720073,257.526123 234.478318,337.11066 324.910932,337.11066 C372.094132,337.11066 416,304.612496 416,240.283014 C416,167.329481 347.847313,103 265.277331,103 C178.776033,103 108,173.962983 108,262.169074 C108,351.037017 181.39691,422 265.277331,422 C338.908689,422 394.077914,373.037964 413.848018,315.114707 Z" id="Fill-1-Copy-7" fill="#000000"></path>
    </g>
</svg>