<svg version="1.1" xmlns="http://www.w3.org/2000/svg" style="display: block;" viewBox="0 0 2048 2048" width="1024" height="1024">
<path transform="translate(0,0)" fill="rgb(255,255,255)" d="M 0 0 L 0 2048 L 2048 2048 L 2048 0 L 0 0 z"/>
<path transform="translate(0,0)" fill="rgb(0,0,0)" d="M 1051.97 2033.71 A 998.69 998.69 0 0 1 419.049 1834.86 C 395.427 1817.06 372.265 1798.93 350.487 1778.89 C 145.839 1590.57 25.8584 1346.1 14.4723 1066.94 A 1025.33 1025.33 0 0 1 282.878 334.418 A 1011.54 1011.54 0 0 1 792.989 41.457 C 860.736 26.1989 929.068 19.194 998.325 16.4388 A 997.388 997.388 0 0 1 1661.14 238.785 C 1673.47 248.878 1686.05 258.84 1697.82 269.586 A 1055.34 1055.34 0 0 1 1814.81 393.175 C 1916.94 521.521 1995.26 690.022 2022.78 851.864 C 2029.49 891.38 2032.52 931.337 2034.33 971.35 A 1002.68 1002.68 0 0 1 1768.77 1707.46 A 1010.06 1010.06 0 0 1 1177.18 2022.17 A 1149.94 1149.94 0 0 1 1051.97 2033.71 z M 986.522 91.4225 C 720.268 105.962 497.06 210.391 318.804 409.287 C 298.852 431.549 281.131 455.174 263.729 479.455 A 928 928 0 0 0 92.1562 1065.33 C 95.2739 1122.6 102.159 1180.74 114.832 1236.72 A 926.644 926.644 0 0 0 400.477 1721.01 A 929.424 929.424 0 0 0 1061.26 1956.21 A 937.519 937.519 0 0 0 1715.9 1654.67 A 920.622 920.622 0 0 0 1818.07 1517.92 C 1920.85 1351.25 1963.3 1168.25 1954.68 973.308 A 936.412 936.412 0 0 0 1657.25 335.125 A 930.885 930.885 0 0 0 989.493 91.2336 A 66.0191 66.0191 0 0 0 986.522 91.4225 z"/>
<path transform="translate(0,0)" fill="rgb(0,0,0)" d="M 1044.1 1946.51 A 919.183 919.183 0 0 1 402.466 1709.92 A 915.476 915.476 0 0 1 102.304 1060.6 A 915.205 915.205 0 0 1 339.984 401.264 A 922.624 922.624 0 0 1 883.462 111.457 C 923.672 105.41 964.048 103.084 1004.63 101.446 A 874.289 874.289 0 0 1 1223.66 122.366 C 1386.05 157.914 1528.51 229.341 1651.15 342.335 A 925.452 925.452 0 0 1 1945.23 977.432 C 1950.77 1116.61 1929.6 1257.44 1875.24 1386.14 C 1866.94 1405.78 1857.28 1424.89 1847.69 1443.93 A 867.538 867.538 0 0 1 1706.3 1648.84 A 922.976 922.976 0 0 1 1158.58 1937.4 C 1120.52 1942.91 1082.47 1945 1044.1 1946.51 z M 1000.31 129.436 C 959.179 131.376 918.188 134.121 877.495 140.724 A 890.624 890.624 0 0 0 359.621 421.723 A 897.067 897.067 0 0 0 130.646 1065.92 C 142.51 1314.05 243.112 1527.69 427.3 1694.68 A 792.506 792.506 0 0 0 518.126 1764.84 A 895.893 895.893 0 0 0 1046.28 1918.13 C 1293.8 1908.85 1515.86 1813.26 1685.08 1631.12 C 1846.32 1457.56 1925.77 1217.94 1916.93 982.876 A 897.16 897.16 0 0 0 1630.96 363.314 A 894.692 894.692 0 0 0 1002.96 129.315 A 150.576 150.576 0 0 0 1000.31 129.436 z"/>
<path transform="translate(0,0)" fill="rgb(0,0,0)" d="M 1623.14 473.187 L 1623.56 473.604 C 1626.98 482.291 1633.69 490.993 1638.44 499.152 C 1648.47 516.403 1658.19 534.97 1664.97 553.743 C 1660.95 555.893 1656.63 557.397 1652.38 559.035 C 1624.04 542.928 1603.26 522.443 1571.54 508.017 C 1582.12 522.942 1592.26 538.215 1603.09 552.962 C 1629.82 589.366 1656.74 624.476 1679.77 663.487 C 1676.36 630.084 1664.94 599.401 1654.95 567.637 C 1659.07 565.108 1663.45 563.103 1667.8 561.009 C 1689.97 579.972 1710.71 601.623 1730.23 623.261 C 1720.46 591.747 1707.72 561.903 1694.22 531.85 C 1701.51 527.311 1709.28 523.34 1715.55 517.408 C 1769.14 584.041 1810.8 676.528 1838.98 756.985 C 1830.83 761.045 1822.29 764.231 1813.82 767.563 C 1795.53 738.825 1778.4 709.461 1758.96 681.453 A 567.649 567.649 0 0 1 1767.82 774.644 C 1763.22 775.999 1758.59 776.793 1753.88 777.627 C 1735.02 745.762 1721.45 717.903 1692.85 692.568 C 1697.43 708.536 1705.42 724.045 1710.83 739.86 C 1726.68 786.164 1740.46 835.713 1747.06 884.255 C 1756.05 851.745 1755.92 816.216 1755.96 782.725 C 1762.45 781.434 1768.51 779.783 1774.77 777.626 C 1788.86 809.749 1802.06 842.937 1813.82 875.978 C 1815.81 840.854 1814.17 806.022 1812.61 770.924 C 1823.04 771.501 1831.87 769.881 1842.05 767.546 C 1848.41 786.079 1852.77 805.111 1857.22 824.168 C 1871.63 885.878 1879.6 946.545 1880.34 1009.93 C 1869.01 1010.7 1857.58 1010.57 1846.23 1010.7 C 1842.56 982.264 1836.89 955.318 1827.71 928.125 A 4101.92 4101.92 0 0 1 1812.08 1009.05 C 1803.54 1009.49 1795.04 1009.45 1786.5 1009.37 C 1784.77 980.706 1771.63 949.546 1761.26 923.137 C 1759.53 951.687 1756.47 981.122 1757.63 1009.71 C 1748.75 1009.96 1739.83 1009.85 1730.93 1009.89 C 1731.04 992.818 1729.99 975.75 1729.27 958.699 C 1728.59 942.503 1728.35 926.456 1726.26 910.35 C 1723.01 885.403 1717.12 860.119 1711.45 835.604 C 1696.63 771.561 1670.57 706.883 1637.3 650.237 C 1585.69 562.385 1503.56 474.398 1417.05 420.543 C 1399.1 447.944 1382.21 476.404 1365.02 504.306 L 1215.36 750.609 C 1202.25 771.763 1191.45 794.591 1177.62 815.216 C 1178.12 830.224 1176.59 922.717 1179.25 927.452 C 1180.82 930.228 1184.64 932.603 1187.65 933.212 C 1200.66 927.463 1188.9 876.07 1195.38 862.318 C 1197.21 860.731 1197.41 860.563 1199.79 860.247 C 1202.09 862.043 1202.88 863.659 1203.36 866.559 C 1204.84 875.544 1203.31 886.242 1203.11 895.385 C 1202.74 912.877 1202.66 930.392 1202.54 947.887 C 1202.5 954.251 1201.47 962.797 1203.48 968.817 C 1204.22 971.007 1204.18 971.066 1206.32 972.155 L 1208.08 970.478 C 1210.52 963.685 1209.81 956.613 1209.77 949.485 L 1220.04 946.916 C 1220.12 938.326 1218.38 890.325 1222.09 886.616 C 1224.03 884.672 1225.01 884.632 1227.52 884.69 C 1234.17 891.8 1225.53 957.472 1233.4 968.576 C 1235.98 970.076 1236.46 970.522 1239.4 970.435 C 1248.37 963.395 1240.11 928 1243.44 916.289 C 1244.22 913.56 1245.7 912.405 1247.95 910.93 L 1250.31 911.471 C 1256.32 919.31 1249.53 980.305 1253.56 994.165 C 1253.99 995.627 1253.93 995.139 1255.58 995.933 L 1257.7 994.692 C 1260.48 989.655 1258.84 981.008 1259.46 975.163 C 1260.44 966.086 1263.32 957.345 1263.93 948.152 C 1264.89 933.814 1264.42 919.189 1264.48 904.812 L 1264.74 832.406 C 1264.75 824.263 1264.16 815.967 1264.48 807.847 C 1264.62 804.222 1265.46 799.736 1268.49 797.39 C 1269.81 796.368 1270.31 796.838 1271.82 797.058 C 1273.5 798.833 1274.19 800.424 1274.57 802.802 C 1275.88 811.006 1274.86 820.92 1274.85 829.262 L 1274.77 884.286 C 1274.76 889.929 1273.55 899.46 1275.58 904.64 L 1278.05 905.296 L 1279.86 903.877 C 1283.48 894.809 1280.71 883.851 1281.03 874.298 C 1281.17 870.341 1281.2 866.437 1284.28 863.56 C 1286.3 863.273 1287.5 863.067 1289.38 862.191 C 1293.48 851.771 1291.05 835.542 1290.91 824.151 C 1290.72 807.506 1289.31 712.279 1292.33 704.609 C 1293.31 702.129 1294.03 701.264 1296.39 700.129 C 1297.21 700.357 1298.17 700.563 1298.85 701.083 C 1300.69 702.471 1301.68 704.208 1302.08 706.417 C 1304.07 717.366 1302.45 733.27 1302.45 744.677 L 1302.16 850.082 C 1302.19 860.073 1300.24 875.801 1303.7 885.023 C 1304.55 887.305 1305.25 887.402 1307.31 888.414 L 1309.76 887.424 C 1315.55 880.251 1311.49 852.876 1312.4 842.402 C 1312.71 838.749 1312.97 834.474 1315.93 831.941 C 1318.15 831.937 1318.5 832.03 1320.07 833.625 C 1324.73 838.34 1320.97 883.817 1321.28 892.576 C 1321.44 897.054 1321.65 901.371 1325.11 904.587 C 1327.9 905.098 1328.1 905.075 1330.68 903.896 C 1333.24 900.881 1334.29 897.878 1334.85 893.956 C 1336.3 883.823 1335.22 872.311 1335.14 862.012 C 1335.05 850.338 1335.46 838.699 1335.27 827.021 C 1335.15 819.376 1334.35 811.053 1335.44 803.475 C 1335.89 800.382 1336.49 798.774 1339.03 796.946 L 1341.39 797.643 C 1343.46 799.818 1344.89 801.713 1345.2 804.815 C 1346.38 816.461 1345.02 829.911 1344.99 841.748 A 6494.27 6494.27 0 0 0 1345.09 932.068 A 106.291 106.291 0 0 0 1347.8 935.389 C 1350.52 938.578 1352.67 940.679 1357 941.009 C 1371.48 932.883 1355.76 875.374 1366.11 864.683 C 1368.77 865.082 1369.03 865.004 1370.92 866.869 C 1375.22 880.426 1372.87 912.449 1372.86 927.743 L 1372.79 1009.81 C 1359.82 1010.07 1346.82 1009.88 1333.86 1009.87 C 1333.91 1006.7 1333.97 1003.52 1333.88 1000.35 C 1333.79 997.428 1333.39 994.44 1331.16 992.353 L 1329.69 993.561 C 1327.89 998.627 1328.53 1004.08 1328.67 1009.38 C 1312.66 1010 1296.49 1009.75 1280.47 1009.39 C 1280.58 1001.64 1281.11 994.914 1277.73 987.735 L 1276.46 987.639 C 1273.08 994.51 1273.94 1001.68 1274.04 1009.14 C 1256.75 1009.78 1239.24 1009.73 1221.94 1009.3 C 1222.02 1000.35 1223.75 971.563 1218.24 965.923 L 1216.94 966.591 C 1213.77 975.721 1215.94 998.466 1216.01 1009.23 A 868.723 868.723 0 0 1 1176.11 1009.3 A 356.495 356.495 0 0 0 1176.25 1000.41 C 1176.24 996.799 1176.17 993.714 1173.51 991.061 L 1172.05 992.599 C 1170.2 998.112 1170.83 1003.9 1171 1009.64 C 1157.37 1010.18 1143.64 1009.84 1130 1009.78 C 1130.1 1006.6 1130.23 1003.4 1130.16 1000.22 C 1130.09 997.288 1129.52 995.142 1127.39 993.081 L 1125.92 994.243 C 1124 999.035 1124.64 1004.16 1124.81 1009.23 A 824.245 824.245 0 0 1 1086.06 1009.11 C 1086.15 1003.53 1086.86 997.119 1085.15 991.758 C 1084.46 989.602 1084.65 989.039 1082.53 987.971 C 1078.38 993.362 1080.29 1003.08 1080.72 1009.45 C 1068.58 1010.04 1056.45 1009.84 1044.3 1009.66 C 1049.89 994.013 1059.63 979.353 1067.73 964.853 A 3899.97 3899.97 0 0 0 1098.57 907.744 C 1138.52 832.289 1181.82 759.245 1225.48 685.924 C 1253.59 638.713 1280.94 590.96 1309.52 544.043 C 1337.59 497.945 1366.83 452.754 1395.49 407.055 C 1360.54 382.889 1300.82 357.803 1260.25 344.772 A 744.135 744.135 0 0 0 686.009 391.106 C 576.576 447.598 478.107 535.334 414.771 641.5 C 384.604 692.068 362.5 745.254 344.66 801.257 C 323.29 870.35 314.878 931.855 315.993 1004.07 C 320.161 990.122 326.944 976.822 329.714 962.556 C 331.472 953.503 329.246 943.568 331.832 934.834 C 332.514 932.529 332.9 931.397 335.097 930.231 C 335.382 930.402 335.695 930.534 335.953 930.744 C 338.74 933.02 339.633 938.086 340.094 941.443 C 341.19 949.428 340.539 958.003 340.674 966.082 A 750.255 750.255 0 0 0 342.663 1009.14 C 325.217 1009.74 307.695 1009.55 290.242 1009.36 C 288.946 979.867 290.372 950.495 289.363 921.075 C 275.195 943.723 266.94 983.191 261.7 1009.74 C 252.945 1010.06 244.148 1009.86 235.387 1009.82 C 233.192 980.644 226.289 951.738 224.541 922.468 C 210.895 948.889 206.216 980.948 200.5 1009.83 C 189.847 1010.09 179.157 1009.89 168.5 1009.86 C 167.068 992.078 168.682 973.65 170.073 955.893 C 175.215 890.266 189.035 827.726 207.271 764.599 C 216.484 767.474 226.062 769.451 235.447 771.708 C 235.356 788.09 233.795 804.387 233.169 820.747 C 232.624 834.99 232.914 849.281 233.172 863.528 C 233.661 861.931 234.161 860.357 234.71 858.779 C 239.074 846.247 265.326 788.141 276.034 784.868 C 278.977 783.968 279.907 784.557 282.618 785.65 C 286.433 793.376 290.482 877.593 291.778 893.996 C 302.571 872.754 306.013 850.967 310.975 828.003 A 1185.76 1185.76 0 0 1 321.938 782.894 C 328.858 756.802 338.549 731.601 345.498 705.56 C 331.902 719.608 319.628 736.106 308.067 751.84 C 300.997 761.463 293.717 774.206 284.445 781.77 C 281.925 782.456 280.806 782.38 278.314 781.617 C 272.226 771.023 283.472 699.773 285.527 682.998 C 265.594 707.71 252.217 738.963 237.148 766.801 C 228.266 763.729 219.624 760.107 210.674 757.156 C 214.248 739.402 221.533 722.32 228.101 705.501 C 256.606 632.518 290.513 577.503 333.816 513.014 C 340.03 518.192 347.17 522.369 353.971 526.737 C 343.083 557.425 329.692 586.556 321.785 618.338 C 332.722 606.489 372.806 560.416 385.343 554.524 L 388.211 556.295 C 389.974 550.367 391.224 544.22 393.336 538.415 C 401.487 516.019 413.511 494.369 422.886 472.375 C 401.03 483.596 379.478 504.253 360.27 519.782 C 353.225 515.964 346.638 510.667 340.076 506.051 C 347.764 494.21 357.259 483.216 366.126 472.239 C 398.85 431.729 432.695 398.233 472.633 364.877 C 484.555 354.92 496.471 344.267 509.679 336.056 C 514.54 343.753 520.335 350.303 526.524 356.944 C 511.053 371.633 488.475 399.88 476.719 417.832 C 490.298 412.006 539.643 388.891 549.93 388.215 C 552.174 388.067 555.274 389.416 557.391 390.184 L 558.472 390.585 L 558.514 389.678 C 558.646 387.203 558.59 384.133 559.902 381.976 C 563.106 376.708 568.729 371.652 572.869 366.955 C 587.344 350.532 601.492 333.818 617.871 319.23 C 591.618 325.016 556.367 337.893 532.577 350.35 C 528.231 343.68 523.523 337.226 518.943 330.716 C 581.976 280.357 682.613 228.83 760.173 208.265 C 762.711 216.314 765.336 224.309 767.055 232.583 C 759.043 239.537 749.192 244.183 739.928 249.214 C 721.063 259.46 699.429 270.024 682.571 283.338 C 701.866 280.3 721.103 276.793 740.425 273.949 C 752.328 272.197 764.309 271.188 776.172 269.14 C 777.649 276.067 779.436 282.58 781.804 289.257 C 753.05 305.762 720.616 327.434 696.331 350.107 C 711.612 344.481 727.517 340.127 742.984 334.988 C 766.027 327.331 788.813 318.941 812 311.711 C 835.909 304.255 859.779 297.478 883.243 288.622 C 860.26 284.648 813.477 286.548 788.813 287.702 C 787.509 280.624 785.339 273.799 783.269 266.917 C 791.148 262.354 800.306 258.99 808.586 255.12 A 2810.67 2810.67 0 0 0 863.257 229.095 C 833.845 230.095 804.322 230.14 774.952 231.987 C 773.161 222.838 770.822 214.525 766.943 206.025 C 847.332 179.553 935.113 167.56 1019.58 167.186 L 1019.7 196.806 C 987.919 203.195 960.793 208.287 929.559 218.052 C 945.651 220.479 1009.32 232.05 1019.31 239.251 C 1020.44 242.464 1020.1 245.097 1019.8 248.401 C 1019.35 248.938 1019.02 249.615 1018.44 250.01 C 1013.29 253.521 992.682 258.3 985.351 260.579 C 963.992 267.22 941.558 273.579 921.214 282.935 C 933.163 281.382 1008.97 280.161 1017.22 284.204 C 1021.13 286.117 1022.64 295.826 1023.69 299.751 C 1024.87 295.323 1025.89 288.342 1029 284.96 C 1033.91 279.623 1121.06 283.1 1134.48 282.877 C 1119.82 278.266 1105.31 273.192 1090.58 268.806 C 1073.82 263.813 1056.65 259.5 1040.13 253.774 C 1034.23 251.727 1029.2 250.053 1026.34 244.08 C 1026.5 242.365 1026.24 241.446 1027.43 240.07 C 1034.71 231.649 1104.8 220.594 1119.69 218.259 C 1108.27 215.771 1097.1 211.841 1085.78 208.889 A 491.399 491.399 0 0 0 1027.74 197.127 C 1028.06 187.202 1027.82 177.27 1027.68 167.343 C 1043.6 166.657 1059.7 167.906 1075.59 168.844 C 1129.27 172.011 1175.74 179.22 1227.94 191.271 C 1247.57 195.803 1268.17 200.362 1286.92 207.835 A 1800.95 1800.95 0 0 1 1280.23 230.956 C 1263.97 231.858 1247.31 230.796 1231 230.734 C 1217.28 230.683 1203.66 231.517 1189.98 232.448 C 1216.18 245.129 1244.15 254.972 1269.21 269.961 A 252.552 252.552 0 0 0 1264.96 284.044 C 1265.52 286.019 1266.02 287.506 1265.72 289.564 C 1258.49 290.089 1241.95 287.151 1233.15 286.729 C 1212.57 285.745 1191.82 286.465 1171.24 286.911 C 1197.05 298.333 1224.77 305.65 1250.2 318.197 C 1248.59 323.483 1246.78 327.061 1249.33 332.3 C 1250.95 332.849 1251.08 333.352 1252.71 332.417 C 1257.05 329.935 1257.41 324.952 1258.41 320.499 A 2840.98 2840.98 0 0 1 1356.3 347.051 C 1332.77 326.557 1297 308.675 1269.9 292.108 C 1272.75 285.47 1274.44 278.434 1276.33 271.479 C 1290.78 274.036 1305.46 274.971 1319.96 277.202 C 1334.33 279.411 1348.45 282.889 1362.53 286.447 A 780.471 780.471 0 0 0 1316.28 253.914 C 1307.11 247.899 1297.47 242.622 1288.72 235.978 C 1286.84 230.628 1294.25 216.625 1295.9 210.373 C 1367.41 231.385 1435.63 265.701 1497.58 306.895 C 1508.99 314.484 1520.86 321.838 1531.55 330.428 C 1526.24 337.772 1520.61 344.851 1514.99 351.954 C 1484.18 337.118 1454.96 326.021 1421.91 317.191 C 1446.99 336.3 1467.71 359.575 1489.65 382.057 C 1487.23 386.541 1484.35 390.659 1481.48 394.856 C 1453.02 382.509 1422.13 372.612 1391.17 369.291 C 1418.16 383.209 1441.88 405.626 1466.22 423.724 C 1491.1 442.229 1517 459.129 1541.43 478.321 C 1527.66 449.835 1508.27 425.092 1488.92 400.283 C 1491.42 395.985 1493.65 391.493 1496 387.104 C 1521.05 397.028 1551.86 409.983 1574.64 424.088 C 1561.36 402.171 1542.14 378.243 1524.25 359.903 C 1530.87 352.29 1535.2 344.634 1539.38 335.473 C 1607.7 389.908 1662.42 439.413 1711.34 512.75 C 1705.15 516.74 1698.96 520.608 1692.49 524.16 C 1670.52 507.382 1648.72 485.486 1623.56 473.604 L 1623.14 473.187 z M 649.601 371.16 C 620.558 377.836 589.622 382.096 561.537 392.126 C 554.968 408.75 511.382 461.538 511.692 470.719 L 513.421 470.691 C 525.297 463.089 649.842 374.158 651.39 371.257 L 649.601 371.16 z M 469.452 509.882 A 2643.75 2643.75 0 0 0 422.374 540.878 C 412.848 547.215 403.243 554.589 392.841 559.354 C 388.844 575.911 368.061 652.088 369.487 661.156 L 370.163 661.602 L 465.674 519.241 C 467.297 516.79 470.264 513.231 470.001 510.351 L 469.452 509.882 z M 1167.61 830.601 C 1160.5 843.441 1152.64 856.305 1146.87 869.799 C 1150.59 883.865 1143.94 902.888 1151.79 915.317 C 1154.37 916.523 1156.31 917.449 1159.26 916.541 C 1162.63 915.5 1164.67 912.915 1166.01 909.811 C 1167.38 906.629 1168.17 903.29 1168.55 899.856 C 1169.56 890.79 1170.07 837.663 1167.94 831.361 C 1167.85 831.099 1167.72 830.854 1167.61 830.601 z M 1139.41 879.673 C 1137.54 883.493 1135.39 886.97 1135.41 891.324 C 1136.15 893.056 1136.86 894.721 1137.73 896.392 C 1139.75 894.79 1139.78 894.407 1140.07 891.717 C 1140.47 888.054 1140.32 883.208 1139.41 879.673 z"/>
<path transform="translate(0,0)" fill="rgb(0,0,0)" d="M 1268.49 290.5 L 1267.26 290.5 L 1268.49 290.5 z"/>
<path transform="translate(0,0)" fill="rgb(0,0,0)" d="M 664.519 415.135 C 684.534 401.708 707.93 391.071 729.959 381.335 C 822.132 340.599 916.319 320.224 1016.84 317.536 C 1110.36 314.416 1202.95 333.936 1290.03 367.114 C 1320.42 378.69 1351.71 392.144 1379.13 409.747 L 1367.52 426.226 C 1339.3 408.274 1309.16 394.726 1277.97 382.837 C 1193.98 350.829 1111.76 337.391 1022.16 336.593 A 727.573 727.573 0 0 0 725.723 403.748 C 708.28 411.919 691.41 421.33 674.562 430.649 C 671.067 425.56 667.775 420.378 664.519 415.135 z"/>
<path transform="translate(0,0)" fill="rgb(0,0,0)" d="M 680.652 440.56 A 730.879 730.879 0 0 1 1005.23 348.436 C 1103.36 342.259 1211.24 365.628 1300.98 404.627 C 1321.82 413.686 1342.92 423.39 1361.88 435.997 C 1358.58 441.551 1354.88 446.922 1351.36 452.339 C 1336.19 439.751 1315.25 431.408 1297.2 423.631 A 670.503 670.503 0 0 0 1034.2 367.208 A 675.058 675.058 0 0 0 758.134 423.914 C 734.84 433.999 712.447 444.274 691.339 458.529 A 266.57 266.57 0 0 1 680.652 440.56 z"/>
<path transform="translate(0,0)" fill="rgb(0,0,0)" d="M 695.914 466.794 C 720.07 456.949 742.897 443.289 767.036 433.04 A 667.959 667.959 0 0 1 1021.93 378.48 C 1114.87 376.019 1210.69 397.63 1295.32 435.528 C 1311.65 442.837 1330.73 450.493 1344.47 462.022 C 1342.16 467.367 1339.04 472.314 1336.08 477.311 C 1228.34 418.228 1133.72 397.394 1011.52 397.611 C 906.198 402.147 797.65 428.457 707.283 484.385 C 703.191 478.738 699.605 472.709 695.914 466.794 z"/>
<path transform="translate(0,0)" fill="rgb(0,0,0)" d="M 713.529 494.621 C 730.507 483.351 748.994 474.931 767.517 466.552 A 631.149 631.149 0 0 1 998.71 409.432 C 1013.5 408.012 1029.17 408.672 1044.02 408.952 A 620.934 620.934 0 0 1 1328.94 486.369 C 1325.45 491.787 1322.51 497.71 1319.41 503.365 C 1227.42 453.966 1146.55 431.718 1042.25 427.201 C 922.554 425.037 828.026 453.805 723.356 509.729 C 719.93 504.804 716.77 499.671 713.529 494.621 z"/>
<path transform="translate(0,0)" fill="rgb(0,0,0)" d="M 629.715 432.636 C 636.549 428.259 644.018 424.678 651.191 420.877 C 655.275 422.3 686.291 476.904 691.527 485.46 A 22617.8 22617.8 0 0 1 810.559 679.184 C 856.849 756.69 901.136 835.251 946.502 913.284 C 964.416 944.098 986.852 978.462 1002.37 1009.98 C 989.997 1010.51 977.611 1010.29 965.233 1010.19 C 965.298 1001.99 965.341 994.559 963.375 986.522 C 962.822 986.643 961.586 986.748 961.189 987.134 C 959.344 994.669 959.706 1002.27 959.81 1009.97 C 948.464 1010.15 937.098 1010.06 925.75 1010.1 L 921.904 1009.99 C 916.605 1006.81 919.795 993.8 916.926 988.264 C 916.435 988.58 915.884 988.82 915.451 989.214 C 913.058 991.392 913.89 1006.15 913.853 1009.9 A 2216.06 2216.06 0 0 1 875.368 1009.88 C 875.728 985.109 875.148 960.214 874.707 935.441 C 874.497 923.63 873.144 910.578 874.518 898.913 C 874.842 896.166 875.086 894.946 877.317 893.314 C 877.654 893.445 878.008 893.538 878.328 893.706 C 886.484 898 881.577 913.198 884.001 920.544 C 884.613 922.397 885.081 923.083 887.023 923.744 C 889.242 924.499 893.494 924.327 895.614 923.275 C 897.419 922.38 897.973 921.815 898.707 919.984 C 901.258 913.625 901.412 888.707 899.347 882.345 C 893.978 865.806 881.883 849.083 872.851 834.31 C 866.754 824.337 861.073 814.122 855.243 803.992 C 805.917 718.281 753.537 634.011 701.439 549.955 L 658.611 480.611 C 649.121 465.546 637.449 450.036 630.228 433.832 C 630.052 433.436 629.886 433.035 629.715 432.636 z M 908.687 897.491 C 908.716 901.298 908.157 906.174 909.802 909.655 L 911.753 910.412 C 911.528 905.786 911.951 901.138 908.687 897.491 z"/>
<path transform="translate(0,0)" fill="rgb(0,0,0)" d="M 729.515 519.878 C 824.475 469.841 908.368 442.835 1016.23 438.439 C 1095.85 434.068 1183.16 454.557 1256.28 485.001 C 1275.12 492.844 1296.2 501.94 1311.97 514.935 L 1301.94 529.969 C 1288.29 519.635 1271.89 512.173 1256.31 505.164 A 572.899 572.899 0 0 0 1023.1 456.767 A 595.118 595.118 0 0 0 739.395 535.855 C 735.804 530.714 732.695 525.278 729.515 519.878 z"/>
<path transform="translate(0,0)" fill="rgb(0,0,0)" d="M 745.936 545.507 C 762.606 537.732 778.4 528.213 795.261 520.681 C 865.529 489.29 938.665 472.534 1015.39 468.427 C 1030.55 466.974 1046.83 468.044 1062.01 469.045 A 549.43 549.43 0 0 1 1255.42 518.019 C 1269.14 524.224 1283.88 530.757 1296.19 539.445 C 1293.76 545.392 1290.43 551.088 1287.41 556.762 C 1269.74 544.198 1248.74 534.804 1228.69 526.635 C 1161.66 499.326 1093.47 486.649 1021.17 487.103 A 563.464 563.464 0 0 0 810.967 534.208 C 791.926 542.336 772.902 550.802 756.086 563.033 C 752.587 557.27 749.309 551.346 745.936 545.507 z"/>
<path transform="translate(0,0)" fill="rgb(0,0,0)" d="M 762.766 571.124 C 782.466 559.439 804.125 549.902 825.261 541.13 C 938.282 494.223 1064.96 483.784 1181.97 522.274 C 1204.8 529.784 1227.65 538.185 1249.36 548.518 C 1256.65 551.986 1274.48 563.476 1281 564.183 C 1281.49 564.236 1281.99 564.261 1282.48 564.3 A 890.186 890.186 0 0 1 1271.46 583.185 C 1235.77 559.067 1193.98 543.064 1152.4 532.288 C 1025.91 499.506 884.713 521.924 772.461 587.889 L 768.883 582.434 C 766.694 578.777 764.788 574.881 762.766 571.124 z"/>
<path transform="translate(0,0)" fill="rgb(0,0,0)" d="M 778.539 598.209 C 793.731 591.319 807.954 582.011 823.21 574.977 C 880.461 548.582 940.148 534.264 1002.93 529.419 C 1093.16 524.144 1188.8 544.402 1265.86 592.649 A 873.722 873.722 0 0 1 1255.56 608.712 C 1241.63 598.127 1225.5 590.847 1209.51 583.907 C 1152.9 559.339 1095.36 548.284 1033.75 547.128 C 954.029 548.227 855.02 569.298 788.854 615.32 C 785.123 609.725 781.655 604.171 778.539 598.209 z"/>
<path transform="translate(0,0)" fill="rgb(0,0,0)" d="M 794.973 624.435 C 807.694 615.541 822.478 608.799 836.597 602.392 C 893.534 576.558 952.23 563.004 1014.49 559.412 C 1078.42 557.725 1137.79 567.206 1197.27 591.03 C 1215.11 598.174 1234.19 606.549 1249.45 618.26 L 1240.86 634.46 C 1178.75 593.803 1099.24 576.143 1025.57 577.585 C 969.27 579.026 917.847 589.621 865.387 610.147 C 843.657 618.65 823.764 627.252 805.274 641.823 C 801.505 636.242 798.3 630.285 794.973 624.435 z"/>
<path transform="translate(0,0)" fill="rgb(0,0,0)" d="M 1282.48 564.3 L 1282.78 563.005 L 1282.48 564.3 z"/>
<path transform="translate(0,0)" fill="rgb(0,0,0)" d="M 809.911 649.55 C 877.469 612.763 940.263 593.744 1016.97 589.435 C 1095.07 586.27 1167.44 604.63 1234.66 644.403 C 1231.5 649.478 1228.05 654.421 1224.75 659.413 C 1159.21 621.889 1096.05 607.206 1020.96 607.355 C 949.952 610.268 879.969 629.391 819.065 666.627 C 815.822 661.072 812.94 655.23 809.911 649.55 z"/>
<path transform="translate(0,0)" fill="rgb(0,0,0)" d="M 825.321 674.828 C 841.891 668.378 857.533 658.87 873.935 651.787 C 923.26 630.487 973.398 620.566 1026.87 618.452 A 366.555 366.555 0 0 1 1187.23 652.634 C 1198.01 657.721 1209.23 662.773 1218.58 670.263 L 1209.22 684.726 C 1171.8 659.205 1107.5 641.952 1062.65 637.92 C 1045.16 636.347 1027.5 636.806 1009.97 637.389 C 995.986 638.441 982.108 639.733 968.304 642.296 C 928.459 649.693 868.378 668.779 835.779 692.852 C 831.937 686.986 828.557 681.048 825.321 674.828 z"/>
<path transform="translate(0,0)" fill="rgb(0,0,0)" d="M 842.617 702.822 C 866.301 682.452 933.431 660.927 964.623 654.855 C 983.595 651.162 1002.73 649.488 1022.01 648.433 A 332.078 332.078 0 0 1 1203.6 695.059 L 1193.82 711.106 C 1146.07 676.47 1073.74 665.712 1015.75 667.052 C 997.777 668.407 979.914 670.097 962.249 673.826 C 934.405 679.705 870.04 700.689 850.232 719.595 C 847.333 714.116 844.952 708.559 842.617 702.822 z"/>
<path transform="translate(0,0)" fill="rgb(0,0,0)" d="M 855.644 727.507 C 869.117 722.052 881.796 714.26 895.079 708.237 C 933.658 690.746 972.795 681.479 1014.93 678.414 C 1059.89 675.397 1107.79 684.265 1149.3 701.088 C 1162.79 706.554 1175.53 713.29 1188.59 719.652 A 1514.77 1514.77 0 0 1 1178.94 735.451 C 1129.88 707.598 1078.75 695.825 1022.59 695.764 C 968.708 697.666 910.59 714.305 865.38 744.06 C 862.335 738.448 858.907 732.998 855.644 727.507 z"/>
<path transform="translate(0,0)" fill="rgb(0,0,0)" d="M 379.809 922.453 C 387.909 897.172 395.44 838.081 396.97 810.72 C 397.963 792.956 395.255 707.789 397.926 701.48 C 399.205 698.459 401.491 698.007 404.216 696.784 C 405.149 697.058 406.092 697.302 407.002 697.642 C 411.034 699.149 411.302 703.177 411.671 706.895 C 412.627 716.53 411.609 726.876 411.603 736.591 C 411.586 762.466 409.691 788.701 411.154 814.522 C 411.941 828.406 414.336 842.485 416.807 856.163 C 418.716 866.726 420.57 877.473 424.797 887.39 C 425.324 874.27 424.29 833.921 427.804 823.716 L 430.292 823.296 C 432.374 824.118 433.082 824.149 433.846 826.472 C 437.719 838.245 429.849 893.127 436.388 901.699 C 439.051 903.101 440.406 903.097 443.312 903.001 C 451.401 893.26 440.541 824.022 448.867 803.959 L 451.389 803.191 C 454.013 806.779 455.001 811.534 455.485 815.891 C 456.513 825.152 455.77 835.072 455.746 844.402 L 455.656 899.588 C 455.651 904.698 454.533 913.178 455.853 918.007 C 456.474 920.277 458.12 921.677 460.313 922.42 C 462.178 923.052 464.135 922.765 465.916 922.074 C 474.712 918.66 464.924 883.332 470.583 874.373 C 472.074 872.012 472.692 872 475.237 871.477 C 485.167 881.079 473.142 944.784 481.813 957.478 C 482.856 959.004 483.356 958.677 485.018 958.969 C 486.757 958.024 488.283 957.369 488.957 955.379 C 490.439 951.001 489.487 943.253 489.473 938.561 C 489.435 926.448 487.285 870.914 490.364 862.464 C 491.155 860.293 491.503 860.178 493.487 859.318 C 494.072 859.615 494.724 859.807 495.243 860.208 C 497.273 861.779 498.828 865.364 499.069 867.834 C 500.056 877.946 499 889.271 498.926 899.479 L 498.064 978.25 L 498.128 1010.18 C 483.481 1010.49 468.803 1010.33 454.151 1010.35 C 454.269 1005.41 455.07 999.074 453.496 994.385 C 452.735 992.12 452.876 991.709 450.68 990.554 C 450.443 990.782 450.174 990.982 449.969 991.239 C 446.397 995.692 447.519 1004.71 447.534 1010.13 L 392.949 1010.09 C 392.946 1006.26 393.099 1002.35 392.835 998.536 C 392.626 995.517 391.954 992.673 389.632 990.732 C 389.407 990.929 389.152 991.094 388.958 991.321 C 385.607 995.258 386.94 1004.94 387.06 1009.85 L 349.346 1009.85 L 349.193 938.965 C 349.069 926.442 347.681 912.696 349.01 900.31 C 349.487 895.867 350.296 891.915 353.209 888.445 L 354.989 889.052 C 361.082 901.307 357.326 939.954 357.947 955.465 C 358.047 957.976 357.614 958.481 359.535 960.21 C 362.484 960.91 362.989 961.118 365.823 960.162 C 368.387 957.592 369.12 954.915 369.622 951.395 C 370.875 942.605 369.818 933.114 369.911 924.204 A 4053.75 4053.75 0 0 0 370.462 856.959 C 370.445 845.704 369.309 833.71 370.372 822.528 C 370.719 818.868 371.049 815.789 373.958 813.349 C 375.556 813.82 376.284 813.78 377.462 815.092 C 378.584 816.341 379.272 817.45 379.555 819.115 C 381.144 828.486 379.802 840.102 379.804 849.709 L 379.809 922.453 z"/>
<path transform="translate(0,0)" fill="rgb(0,0,0)" d="M 730.839 904.97 C 738.455 870.926 743.847 835.354 745.016 800.449 C 745.53 785.097 742.964 710.614 745.114 703.031 C 745.947 700.09 748.63 699.236 751.05 697.756 C 751.407 697.833 751.768 697.896 752.121 697.989 C 755.112 698.775 757.396 699.766 758.612 702.733 C 761.177 708.992 759.453 740.492 759.415 749.776 C 759.317 773.576 758.237 797.918 760.227 821.631 C 761.298 834.402 763.846 847.251 765.905 859.913 C 767.222 868.017 767.929 880.071 772.424 887.055 C 773.8 889.193 774.706 889.68 777.137 890.07 C 785.275 882.349 774.552 808.311 782.821 799.125 C 784.425 797.342 784.821 797.374 787.064 797.243 C 794.263 804.526 787.538 893.548 789.071 912.392 C 789.335 915.634 789.623 918.95 792.6 920.942 C 794.684 922.336 797.547 923.016 799.981 922.168 C 808.361 919.25 802.626 887.139 805.32 878.56 C 806.523 877.365 807.141 876.697 808.843 876.263 C 810.444 875.855 810.585 876.444 811.854 877.293 C 816.449 886.471 813.285 923.66 814.192 936.965 C 814.542 942.097 815.768 950.105 820.146 953.475 C 821.375 954.421 821.89 953.895 823.268 953.604 C 831.405 942.733 823.002 862.97 827.714 842.506 C 829.849 840.769 830.352 840.738 833.109 840.351 L 834.787 841.732 C 838.849 850.959 835.889 925.222 835.559 941.18 C 834.744 963.998 835.035 986.87 835.04 1009.7 L 794.121 1009.86 C 794.022 1005.94 794.475 1001.74 793.963 997.871 C 793.633 995.374 793.157 993.732 791.215 992.066 L 789.797 993.563 C 788.105 998.926 788.758 1004.26 789.06 1009.79 A 3273.92 3273.92 0 0 1 742.989 1009.77 A 433.626 433.626 0 0 0 743.16 1001.96 C 743.204 997.964 743.6 992.654 740.582 989.573 L 739.231 990.804 C 737.166 996.768 737.899 1003.19 738.105 1009.4 C 729.604 1009.84 721.051 1009.64 712.54 1009.61 C 712.442 985.382 711.94 961.07 712.52 936.854 C 713.05 914.74 714.581 892.659 714.941 870.541 L 715.559 823.614 C 715.656 816 715.081 807.545 716.311 800.026 C 716.722 797.518 717.513 796.789 719.5 795.355 C 722.641 795.331 723.264 795.532 726.042 797.018 C 727.428 799.742 727.562 802.729 727.681 805.74 C 729.001 839.037 727.338 871.629 730.839 904.97 z"/>
<path transform="translate(0,0)" fill="rgb(0,0,0)" d="M 1421.41 1009.97 C 1421.99 988.351 1419.52 965.584 1422.04 944.148 C 1423.14 934.822 1430.58 928.932 1431.01 918.845 C 1431.68 903.01 1427.8 825.588 1433.42 818.212 C 1434.44 816.868 1435.1 817.148 1436.64 816.912 C 1438.82 818.413 1439.65 818.73 1440.4 821.423 C 1444.53 836.303 1437.35 879.401 1441.6 894.693 L 1444.02 895.579 C 1449.54 890.628 1445.46 879.981 1448.57 873.359 C 1451.44 871.586 1452.72 872.415 1455.97 872.948 C 1458.69 869.268 1456.56 762.281 1456.49 747.91 C 1456.43 733.974 1453.89 713.686 1458.45 700.584 C 1459.58 700.684 1461.38 700.704 1462.5 701.09 C 1464.92 701.933 1465.63 702.569 1466.28 705.017 C 1468.64 713.799 1466.96 729.863 1467 739.464 L 1467.28 833.778 C 1467.27 850.633 1466.19 868.053 1467.34 884.824 C 1467.49 887.061 1467.89 889.411 1469.37 891.198 C 1471.07 893.236 1472.09 893.2 1474.49 893.279 C 1475.45 892.685 1476.57 892.294 1477.36 891.496 C 1482.68 886.171 1476.08 853.842 1479.79 843.75 C 1481.83 842.267 1482.08 842.174 1484.59 842.042 C 1493.19 850.124 1483.11 901.643 1489.96 910.016 C 1492.04 911.051 1493.13 911.736 1495.56 910.986 C 1497.92 910.257 1499.49 908.256 1500.24 906.005 C 1502.01 900.681 1500.71 890.813 1500.67 885.086 C 1500.58 870.479 1497.55 804.544 1503.16 795.514 C 1504.28 793.7 1503.68 794.314 1505.97 793.721 C 1508.34 795.265 1509.61 796.725 1510.41 799.503 C 1511.98 804.978 1510.83 813.695 1510.84 819.569 L 1510.96 886.9 C 1510.96 895.885 1509.75 905.748 1510.74 914.608 C 1511.08 917.69 1511.84 920.943 1514.14 923.156 C 1515.38 924.349 1516.17 923.988 1517.77 924.038 C 1530.51 915.061 1517.32 860.67 1525.63 851.135 C 1528.13 850.343 1528.05 850.086 1530.35 851.252 C 1538.46 864.765 1529.77 929.331 1533.82 949.464 C 1534.23 951.469 1533.77 950.679 1535.58 951.908 C 1538.39 951.706 1540.44 950.908 1542.54 949.011 C 1545.28 946.526 1546.52 942.792 1547.08 939.236 C 1548.23 931.886 1546.9 923.503 1546.77 916.027 C 1546.56 903.943 1546.68 891.836 1546.7 879.75 C 1546.7 877.058 1546.74 875.141 1547.61 872.548 L 1551.42 870.746 C 1558.46 885.2 1549.32 904.211 1556.25 919.376 C 1561.02 929.827 1558.18 992.974 1558.51 1009.93 L 1513.4 1009.98 C 1513.38 1005.66 1513.87 1000.41 1512.98 996.217 C 1512.49 993.927 1512.14 992.048 1510.22 990.682 C 1510 990.889 1509.75 991.069 1509.56 991.305 C 1506.27 995.435 1507.49 1004.66 1507.58 1009.7 A 3840.64 3840.64 0 0 1 1454.83 1009.67 C 1454.99 1004.15 1455.87 997.529 1453.38 992.432 C 1452.47 990.571 1453.07 991.169 1451.12 990.505 C 1450.88 990.762 1450.6 990.993 1450.38 991.277 C 1446.98 995.739 1448.36 1004.58 1448.54 1009.92 C 1439.5 1010.03 1430.45 1009.96 1421.41 1009.97 z"/>
<path transform="translate(0,0)" fill="rgb(0,0,0)" d="M 1604.28 1009.91 C 1604.26 982.347 1603.18 954.163 1604.8 926.656 C 1605.11 921.366 1609.49 917.248 1609.87 911.956 C 1611.74 886.319 1610.74 859.781 1610.85 834.063 C 1610.89 825.366 1608.73 805.849 1613.21 798.545 C 1615.68 796.716 1616.05 796.6 1619.13 796.364 C 1621.48 797.654 1622.51 797.967 1623.55 800.606 C 1624.95 804.138 1624.17 810.472 1624.19 814.395 C 1624.28 828.297 1621.95 874.593 1628.65 884.42 L 1629.96 884.483 C 1633.13 880.825 1634.02 875.085 1634.67 870.393 C 1635.41 865.056 1635.03 859.676 1635.32 854.309 C 1636.13 839.529 1636.84 824.877 1637.23 810.079 C 1637.76 789.733 1639.03 769.405 1639.49 749.052 C 1639.75 737.442 1638.82 724.659 1640.54 713.214 C 1640.99 710.215 1642.17 708.253 1643.9 705.817 C 1646.03 705.781 1647.8 706.061 1649.88 706.517 C 1652.68 708.613 1653.79 710.63 1654.53 714.007 C 1655.85 720.102 1654.7 727.284 1654.57 733.5 A 1782.02 1782.02 0 0 1 1653.34 776.176 C 1652.73 789.666 1648.25 818.78 1652.18 831.008 C 1653.48 835.074 1656.32 836.456 1659.89 838.277 C 1665.87 841.321 1657.7 883.732 1665.35 891.875 C 1665.69 892.228 1666.06 892.546 1666.41 892.881 L 1664.82 891.58 L 1667.42 892.526 C 1673.83 885.16 1671.87 871.223 1671.77 861.969 C 1671.62 847.654 1670.51 816.459 1672.48 803.858 C 1672.86 801.445 1673.29 800.912 1674.92 799.246 C 1677.25 799.383 1677.37 799.345 1679.14 800.834 C 1681.79 811.167 1679.5 830.612 1679.37 841.942 C 1679.01 871.27 1679.43 900.589 1677.79 929.887 C 1695.22 905.964 1694.25 881.895 1692.58 853.755 C 1692.38 850.256 1691.25 844.294 1692.68 841.081 C 1693.2 839.914 1694.17 840.028 1695.29 839.703 C 1697.13 840.392 1698.27 840.778 1699.04 842.829 C 1700.2 845.918 1699.16 855.015 1699.16 858.469 C 1699.18 878.314 1699.38 898.191 1699.07 918.033 C 1698.95 925.927 1697.7 934.002 1698.39 941.861 C 1698.73 945.802 1699.69 950.33 1702.37 953.405 C 1704.02 955.305 1705.21 956.011 1707.66 956.342 L 1709.36 954.74 C 1713.56 943.818 1710.46 916.516 1710.35 903.935 C 1710.33 901.47 1710.38 900.428 1712.13 898.582 L 1714.4 898.791 C 1718 902.609 1717.48 928.374 1718.16 935.856 L 1721.51 937.878 C 1725.86 945.59 1725.03 998.461 1725.03 1009.39 C 1713.36 1009.9 1701.6 1009.58 1689.92 1009.54 C 1690.03 1005.77 1690.42 1001.64 1690.03 997.904 C 1689.75 995.294 1689.34 993.651 1687.26 991.971 C 1687.03 992.16 1686.77 992.316 1686.57 992.536 C 1683.24 996.227 1684.55 1005.23 1684.73 1009.92 C 1670.14 1010.2 1655.51 1010.02 1640.92 1010.05 A 759.861 759.861 0 0 0 1640.97 1001.62 C 1640.98 1000.09 1641.1 998.446 1640.79 996.934 C 1640.25 994.297 1639.83 992.268 1637.65 990.669 C 1637.43 990.88 1637.17 991.061 1636.98 991.301 C 1633.6 995.49 1634.95 1004.77 1635.1 1009.87 C 1624.84 1010.09 1614.54 1009.92 1604.28 1009.91 z"/>
<path transform="translate(0,0)" fill="rgb(0,0,0)" d="M 562.647 910.271 C 569.806 882.59 574.203 852.392 576.218 823.849 C 577.979 798.904 577.052 773.208 576.556 748.194 C 576.335 737.11 575.202 725.137 576.281 714.123 C 576.543 711.443 577.426 709.147 578.581 706.739 C 580.588 706.742 583.635 706.457 585.517 707.059 C 591.669 709.026 589.863 727.054 589.838 732.516 C 589.674 767.462 587.361 804.217 590.909 838.982 C 592.485 854.431 595.94 869.592 599.023 884.79 C 601.768 898.319 604.153 911.508 608.836 924.56 L 609.988 925.046 C 613.498 916.268 611.869 902.991 611.788 893.601 C 611.636 876.034 609.85 816.504 613.458 801.76 C 615.452 800.145 615.614 799.857 618.139 799.691 C 620.054 801.107 620.95 802.236 621.604 804.592 C 623.277 810.612 621.936 820.821 621.909 827.279 C 621.857 840.065 619.781 926.714 623.699 931.387 C 626.257 932.424 626.818 932.777 629.502 932.36 C 637.867 924.164 626.506 864.748 634.264 851.378 C 635.494 849.259 634.737 849.957 637.168 849.22 C 643.743 856.784 638.408 905.152 641.433 918.812 C 652.607 929.153 641.966 947.863 649.405 958.63 C 650.953 960.869 651.587 961.031 654.057 961.223 C 654.752 960.69 655.721 960.392 656.142 959.624 C 660.79 951.158 652.914 885.729 659.531 877.714 C 662.176 877.215 662.011 877.101 664.239 878.583 C 668.472 887.622 666.296 902.538 666.112 912.448 A 6482.13 6482.13 0 0 0 666.843 1010.25 C 655.608 1010.61 644.347 1010.44 633.107 1010.43 L 633.14 1008.17 C 633.195 1003.33 634.089 995.336 630.469 991.619 L 629.109 992.909 C 627.289 998.62 627.9 1004.53 628.073 1010.46 C 610.426 1010.79 592.746 1010.55 575.096 1010.53 C 575.249 1002.55 575.984 993.923 572.722 986.437 L 571.082 987.166 C 568.518 994.143 569.36 1002.84 569.525 1010.15 A 1176.57 1176.57 0 0 1 544.078 1010.16 C 544.22 959.371 546.634 908.862 548.017 858.124 C 548.375 844.969 547.412 810.462 549.582 800.677 C 550.185 797.959 550.709 796.772 552.981 795.203 C 555.008 795.618 556.196 795.858 557.877 797.164 C 559.469 798.401 559.634 799.99 559.838 801.909 C 560.937 812.26 560.083 823.436 560.035 833.883 C 559.917 859.228 559.352 885.1 562.647 910.271 z"/>
<path transform="translate(0,0)" fill="rgb(0,0,0)" d="M 871.087 753.124 C 921.735 725.814 962.837 712.123 1020.54 707.411 C 1075.35 703.988 1125.49 721.594 1174 744.917 C 1170.94 750.084 1167.82 755.084 1164.33 759.978 C 1120.45 735.492 1068.49 724.397 1018.54 725.243 C 1003.01 726.544 987.732 728.498 972.495 731.846 C 949.007 737.007 897.273 753.24 880.058 769.87 C 876.747 764.421 873.898 758.844 871.087 753.124 z"/>
<path transform="translate(0,0)" fill="rgb(0,0,0)" d="M 886.046 778.597 C 923.027 755.59 968.016 741.701 1011.04 737.402 C 1061.24 731.832 1114.25 747.445 1157.52 772.045 L 1149.64 786.925 C 1112.62 765.565 1071.91 755.026 1029.3 754.671 C 979.475 755.344 937.537 769.619 894.231 793.393 C 891.132 788.638 888.612 783.652 886.046 778.597 z"/>
<path transform="translate(0,0)" fill="rgb(0,0,0)" d="M 900.519 804.131 C 933.654 783.972 970.315 770.801 1009.04 767.413 C 1052.41 761.949 1106.06 773.996 1143.42 796.967 C 1140.76 802.598 1137.79 807.848 1134.53 813.152 C 1105.83 793.176 1067.18 785.534 1032.78 784.693 C 992.33 784.149 941.875 795.301 908.525 819.471 L 900.519 804.131 z"/>
<path transform="translate(0,0)" fill="rgb(0,0,0)" d="M 914.767 829.287 C 943.625 811.348 976.843 799.31 1010.74 796.418 C 1040.44 792.354 1072.07 798.673 1099.72 809.308 C 1109.58 813.1 1119.11 818.024 1129.11 821.365 L 1129.97 821.644 L 1120.27 838.63 C 1090.58 824.013 1064.32 815.086 1031.17 813.294 A 205.187 205.187 0 0 0 922.618 843.832 C 919.555 839.19 917.195 834.277 914.767 829.287 z"/>
<path transform="translate(0,0)" fill="rgb(0,0,0)" d="M 929.723 853.456 C 958.146 837.31 986.224 828.18 1018.85 825.416 C 1051.28 822.317 1086.86 833.336 1114.51 849.733 C 1111.88 854.584 1108.97 859.302 1106.16 864.053 C 1080.17 849.041 1050.51 842.268 1020.69 842.897 C 995.024 843.61 958.529 853.713 938.17 869.766 C 935.112 864.449 932.435 858.955 929.723 853.456 z"/>
<path transform="translate(0,0)" fill="rgb(0,0,0)" d="M 943.797 878.873 C 969.326 864.429 996.249 856.313 1025.52 854.434 C 1052.23 853.737 1077.06 863.13 1100.87 874.255 C 1098.48 879.918 1095.66 885.154 1092.63 890.498 C 1067.03 876.994 1043.7 870.703 1014.75 872.991 C 992.587 874.299 971.222 883.426 952.243 894.382 C 949.131 889.342 946.461 884.156 943.797 878.873 z"/>
<path transform="translate(0,0)" fill="rgb(0,0,0)" d="M 1564.33 1010.01 A 3037.09 3037.09 0 0 1 1565.37 915.829 C 1565.77 903.055 1565.19 889.828 1567.02 877.174 C 1569.14 877.695 1572.98 878.376 1573.78 880.697 C 1578.08 893.04 1568.61 947.838 1577.3 955.709 C 1579.43 957.639 1579.88 957.717 1582.56 957.557 C 1588.98 953.134 1590 942.443 1593.14 935.594 L 1595.64 935.552 L 1594.44 934.403 L 1593.31 935.45 L 1596.28 937.354 C 1600.05 950.68 1598.04 976.783 1598.1 991.5 L 1598.16 1009.98 L 1564.33 1010.01 z"/>
<path transform="translate(0,0)" fill="rgb(0,0,0)" d="M 957.602 904.545 C 977.457 894.921 996.421 886.819 1018.58 884.381 C 1041.56 880.927 1066.92 890.675 1087 900.869 L 1078.54 917.897 C 1061.87 907.327 1044.63 902.212 1025.02 901.364 C 1005.51 902.851 983.22 908.513 967.726 921.104 C 964.138 915.712 960.891 910.121 957.602 904.545 z"/>
<path transform="translate(0,0)" fill="rgb(0,0,0)" d="M 1379.42 1009.67 C 1379.36 1001.2 1376.58 977.741 1380.82 971.085 C 1382.36 970.556 1385.65 969.823 1386.25 967.97 C 1387.18 965.032 1386.57 959.459 1386.52 956.343 C 1386.33 944.07 1382.94 911.168 1389.75 902.396 C 1404.05 909.41 1388.32 958.515 1397.55 968.307 C 1399.36 970.231 1400.84 970.919 1403.4 971.002 C 1410.41 964.657 1402.23 941.838 1408.82 933.102 C 1411.11 932.569 1411.1 932.611 1413.21 933.649 C 1417.33 944.014 1415.1 971.279 1415.04 983.5 L 1415.18 1009.38 C 1403.29 1009.99 1391.33 1009.71 1379.42 1009.67 z"/>
<path transform="translate(0,0)" fill="rgb(0,0,0)" d="M 973.692 930.566 C 987.817 923.807 1001.66 916.833 1017.25 914.296 C 1036.22 911.321 1055.93 918.911 1072.08 928.179 C 1069.19 933.38 1066.4 938.163 1062.62 942.787 C 1049.98 937.001 1038.55 933.419 1024.63 932.411 C 1008.91 932.614 994.877 938.173 982.829 948.136 C 979.516 942.378 976.538 936.569 973.692 930.566 z"/>
<path transform="translate(0,0)" fill="rgb(0,0,0)" d="M 839.885 1009.84 C 839.773 983.681 838.235 943.069 842.052 918.284 C 845.309 918.812 846.338 918.832 849.005 920.915 C 853.769 930.693 848.87 940.599 850.568 950.631 C 851.042 953.434 851.906 954.376 854.051 956.105 C 860.105 957.53 865.348 954.57 870.645 952.033 C 871.273 970.891 870.901 989.854 870.927 1008.72 C 865.193 1012.09 846.978 1009.94 839.885 1009.84 z"/>
<path transform="translate(0,0)" fill="rgb(0,0,0)" d="M 672.906 1010.22 C 672.873 981.531 672.295 952.087 674.524 923.513 C 676.65 923.721 678.153 924.03 680.105 924.908 C 686.376 933.64 679.097 947.364 682.349 956.971 C 683.147 959.33 684.544 961.023 686.962 961.904 C 689.438 962.806 692.985 962.355 695.426 961.518 C 701.487 959.44 704.246 952.665 706.974 947.413 L 706.968 997.5 L 707.015 1010.07 C 695.657 1010.31 684.269 1010.19 672.906 1010.22 z"/>
<path transform="translate(0,0)" fill="rgb(0,0,0)" d="M 503.608 1010.04 C 503.717 994.566 501.949 933.197 505.32 924.551 C 521.425 928.267 506.861 950.635 515.234 960.267 C 517.43 962.792 519.409 963.087 522.614 963.307 C 536.692 957.755 526.067 938.72 531.69 927.646 C 534.097 926.156 533.92 926.306 536.701 926.948 C 541.205 932.461 538.883 964.48 538.807 972.75 L 538.664 1010.04 L 503.608 1010.04 z"/>
<path transform="translate(0,0)" fill="rgb(0,0,0)" d="M 988.401 956.757 C 998.062 951.41 1007.65 947.624 1018.4 945.131 C 1031.2 944.097 1045.34 948.398 1056.51 954.5 C 1054.17 960.185 1051.12 965.445 1048.11 970.792 C 1041.34 967.88 1034.66 965.578 1027.58 963.548 C 1016.61 961.775 1006.5 967.246 996.694 971.453 C 993.616 966.668 990.983 961.819 988.401 956.757 z"/>
<path transform="translate(0,0)" fill="rgb(0,0,0)" d="M 1002.52 980.676 A 1162.98 1162.98 0 0 1 1016.36 977.163 C 1025.75 976.11 1032.46 978.16 1040.81 981.998 C 1038.57 986.427 1037.76 991.27 1034.56 995.154 C 1031.41 996.368 1030.55 995.541 1027.42 994.498 C 1021.65 993.815 1017.28 995.504 1012.06 997.826 C 1008.6 992.212 1005.47 986.573 1002.52 980.676 z"/>
<path transform="translate(0,0)" fill="rgb(0,0,0)" d="M 1539.41 1566.63 C 1523.17 1577.34 1508.59 1592.64 1493.36 1604.94 C 1457.88 1633.59 1417.81 1660.95 1376.71 1680.77 C 1385.9 1679.57 1395.07 1678.32 1404.14 1676.41 C 1417.79 1673.53 1473.46 1657.39 1482.71 1661.57 C 1484.14 1664.74 1483.96 1667.06 1482.67 1670.19 C 1476.92 1684.13 1440.31 1716.88 1427.44 1727.98 C 1456.24 1720.79 1485.47 1709.9 1513.4 1699.78 C 1515.91 1707.08 1522.14 1713.07 1527.12 1718.84 C 1469.12 1765.65 1367.73 1818.21 1295.76 1837.15 C 1293.31 1829.75 1291.02 1823.03 1286.44 1816.6 L 1284.39 1813.67 C 1311.24 1795.32 1341.3 1781.18 1366.24 1759.97 C 1347.14 1764.84 1289.09 1773.61 1270.6 1767.53 L 1269.37 1766.06 C 1272.9 1761.07 1278.75 1757.02 1283.32 1752.94 C 1296.9 1740.81 1333.77 1711.55 1341.5 1697.78 L 1341.89 1697.25 L 1341.5 1697.78 C 1326.63 1703.36 1312.2 1710.15 1297.27 1715.55 C 1251.61 1732.05 1204.18 1745.52 1156.19 1753.1 C 1190.13 1759.89 1224.77 1759.86 1258.95 1764.23 C 1261.33 1764.54 1263.86 1764.54 1265.75 1766.16 C 1266.38 1768.3 1266.73 1769.21 1265.41 1771.3 C 1259.32 1780.91 1201.17 1807.17 1188.13 1812.88 C 1218.54 1813.86 1248.95 1813.16 1279.34 1813.96 C 1281.25 1822.98 1283.64 1831.7 1286.28 1840.53 A 881.602 881.602 0 0 1 1028.24 1879.6 L 1028.35 1852.59 C 1059.51 1847.28 1092.83 1840.5 1121.62 1827.1 C 1103.64 1826.85 1041.03 1819.33 1028.9 1806.87 C 1027.5 1805.42 1026.28 1803.29 1026.31 1801.21 C 1026.33 1799.62 1026.56 1797.8 1027.93 1796.86 C 1034.99 1792.03 1046.62 1789.54 1054.74 1786.86 C 1078.51 1778.99 1105.06 1770.88 1125.71 1756.42 C 1063.2 1768.77 988.554 1765.85 925.483 1758.96 C 946.184 1770.69 969.921 1778.62 992.29 1786.69 C 1000.11 1789.51 1010.01 1791.71 1017.08 1795.78 C 1019.91 1797.41 1021.21 1799.72 1022.27 1802.68 C 1021.71 1805.84 1020.88 1807.31 1018.12 1809.09 C 1001.3 1819.9 947.166 1825.89 925.87 1828.04 C 954.99 1840.34 988.283 1848.32 1019.51 1853.17 L 1019.64 1879.42 C 949.547 1878.53 882.061 1870.82 813.886 1854.06 C 797.139 1849.95 779.953 1845.85 763.598 1840.4 C 766.369 1831.95 769.73 1823.35 771.799 1814.71 C 802.678 1817.76 834.041 1820.24 865.089 1818.58 C 837.271 1807.13 805.877 1793.59 782.46 1774.42 C 783.965 1770.64 785.598 1766.88 786.849 1763.01 C 803.251 1761.24 819.886 1761.19 836.356 1760.17 A 701.88 701.88 0 0 0 890.534 1754.18 C 842.244 1744.96 796.741 1729.41 750.026 1714.58 C 734.01 1709.49 716.986 1701.52 700.588 1698.67 L 700.139 1698.25 L 700.588 1698.67 C 712.704 1715.88 762.453 1747.72 780.963 1760.85 C 779.305 1764.64 777.857 1768.12 775.127 1771.31 C 763.866 1776.59 699.657 1764.26 683.35 1760.45 C 706.589 1781.86 736.654 1798.74 764.56 1813.29 C 760.865 1821.42 758.254 1829.89 755.623 1838.4 C 670.779 1809.43 589.102 1772.82 517.873 1717.43 C 524.848 1711.01 530.488 1702.3 536.194 1694.75 C 564.528 1710.89 594.306 1721.8 625.38 1731.37 C 601.272 1711.42 574.974 1688.2 557.872 1661.72 C 559.488 1658.16 561.482 1654.81 563.418 1651.42 C 594.319 1661.13 624.549 1672.01 655.895 1680.37 C 635.2 1665.81 615.933 1649.13 595.96 1633.61 C 567.096 1611.18 538.269 1590.73 507.578 1570.89 C 516.901 1589.17 544.82 1631.74 559.308 1645.64 C 555.985 1650.12 553.527 1654.76 550.995 1659.71 C 527.121 1655.38 490.779 1632.49 471.964 1617.71 C 487.533 1643.17 507.611 1667.45 528.317 1688.91 C 522.453 1696.86 516.181 1704.24 510.779 1712.57 C 453.105 1671.4 378.548 1601.76 339.958 1542.96 C 348.018 1537.54 355.516 1531.77 362.506 1525.02 C 378.097 1540.04 410.795 1569.88 428.904 1579.54 C 415.635 1556.44 400.937 1528.21 393.118 1502.79 C 396.457 1499.03 399.978 1495.94 403.866 1492.78 C 424.703 1511.7 450.478 1526.98 474.095 1542.34 C 463.207 1519.82 446.792 1500.81 432.737 1480.34 C 430.008 1476.36 429.651 1471.62 427.012 1467.81 C 422.704 1461.58 416.325 1456.51 411.784 1450.1 C 395.671 1427.36 381.204 1403.51 364.488 1381.2 C 371.656 1416.95 382.604 1453.3 398.68 1486.04 C 395.507 1489.64 391.918 1492.47 388.173 1495.42 C 380.069 1489.18 372.75 1480.64 365.673 1473.26 A 994.935 994.935 0 0 1 319.818 1422.49 C 329.097 1455.4 341.811 1488.54 358.196 1518.55 C 351.074 1525.34 343.167 1531.06 334.795 1536.2 C 313.976 1511.02 296.227 1482.67 280.136 1454.29 C 210.34 1331.19 167.572 1179.98 167.592 1038.21 C 178.268 1037.9 188.91 1038.03 199.586 1038.19 C 205.997 1069.08 213.573 1097.94 223.563 1127.85 C 226.617 1097.8 230.577 1067.92 234.498 1037.97 C 242.864 1037.72 251.265 1037.9 259.634 1037.92 C 264.824 1067.69 274.594 1099.61 287.887 1126.76 C 290.182 1097.63 288.948 1067.5 289.397 1038.23 C 306.904 1037.77 324.47 1038.01 341.981 1038.24 C 342.182 1051.8 341.179 1065.43 340.683 1078.99 C 340.406 1086.56 340.782 1094.26 340.262 1101.81 C 339.939 1106.48 339.24 1110.9 335.614 1114.07 C 332.67 1113.06 331.064 1111.69 330.203 1108.59 C 328.865 1103.76 330.108 1095.97 329.965 1090.75 C 329.586 1076.92 321.4 1056.72 313.972 1045.19 C 313.76 1044.86 313.539 1044.53 313.322 1044.21 C 315.638 1072.86 316.116 1101.74 319.209 1130.33 C 321.425 1150.82 325.398 1171.23 330.075 1191.29 C 362.516 1330.43 411.865 1431.46 513.638 1533.2 C 545.561 1565.12 579.54 1594.9 617.994 1618.83 C 629.531 1596.83 643.615 1575.79 656.942 1554.83 L 717.647 1459.34 C 748.512 1410.37 777.54 1360.14 807.763 1310.77 A 6931.48 6931.48 0 0 0 880.174 1191.25 C 886.87 1180.16 894.57 1169.67 901.059 1158.49 C 899.085 1148.71 900.863 1137.82 897.916 1128.44 C 896.899 1125.21 895.593 1123.83 892.696 1122.2 C 890.333 1122.26 888.289 1122.92 886.517 1124.55 C 881.054 1129.57 884.956 1165.21 883.643 1174.89 C 883.179 1178.31 882.563 1180.96 879.751 1183.17 C 877.09 1183.08 877.211 1183.01 875.273 1181.16 C 873.178 1175.64 875.262 1050.85 875.286 1038.21 A 946.839 946.839 0 0 1 914.723 1038.17 C 914.612 1044.38 913.104 1054.24 917.275 1059.24 L 918.698 1057.75 C 920.771 1051.6 920.059 1044.94 919.895 1038.55 A 713.174 713.174 0 0 1 958.685 1038.82 C 958.57 1044.11 957.84 1050.47 959.008 1055.62 C 959.534 1057.95 959.748 1059.67 961.874 1060.96 C 966.391 1055.8 964.881 1045.04 964.795 1038.68 A 389.924 389.924 0 0 1 998.344 1038.85 C 986.921 1062.6 972.815 1085.6 959.465 1108.33 C 943.781 1135.04 928.325 1161.82 912.329 1188.35 A 18289.1 18289.1 0 0 1 739.304 1469.13 L 681.367 1561.35 C 666.087 1585.45 650.261 1608.92 636.46 1633.94 C 649.204 1643.82 665.527 1651.41 679.952 1658.6 A 777.267 777.267 0 0 0 862.614 1724.34 A 745.305 745.305 0 0 0 1270.2 1699.41 C 1316.08 1683.77 1360.96 1664.71 1401.83 1638.44 C 1390.47 1617.94 1376.8 1598.16 1364.29 1578.3 L 1288.58 1457.83 A 10968.7 10968.7 0 0 1 1118.3 1168.44 C 1101.36 1138.95 1083.97 1109.7 1067.27 1080.08 C 1059.62 1066.53 1051.43 1052.99 1044.77 1038.93 A 1051.74 1051.74 0 0 1 1080.1 1038.91 C 1079.98 1046.89 1079.24 1055.24 1082.48 1062.74 L 1083.51 1062.92 C 1087.41 1056.29 1086.47 1046.21 1086.45 1038.78 C 1098.99 1038.05 1111.67 1038.22 1124.21 1038.73 C 1124.36 1043.52 1124.23 1048.6 1124.86 1053.33 C 1125.22 1056.07 1125.98 1059.76 1128.22 1061.41 C 1132.23 1056.02 1130.95 1045.04 1130.85 1038.66 C 1144.15 1037.71 1157.83 1038.11 1171.15 1038.65 C 1171.09 1047.23 1171.04 1054.28 1173.77 1062.5 L 1174.67 1062.11 C 1176.23 1054.32 1176.27 1046.7 1176.34 1038.78 C 1189.83 1038.57 1203.28 1038.42 1216.76 1038.85 C 1216.72 1044.82 1216.06 1051.3 1218.03 1057 C 1218.71 1058.99 1218.37 1059.15 1220.31 1060.07 C 1224.43 1054.57 1223.14 1045.37 1223.02 1038.87 C 1239.89 1038.12 1256.96 1038.25 1273.84 1038.79 C 1273.69 1047.55 1272.96 1056.17 1276.18 1064.49 L 1277.53 1065.01 C 1281.9 1058.55 1280.6 1046.26 1280.55 1038.6 C 1296.11 1037.7 1312.06 1038.03 1327.63 1038.61 C 1327.64 1047.36 1327.65 1055.69 1329.22 1064.34 L 1331.36 1065.29 L 1330.44 1066.6 L 1329.34 1064.56 L 1331.5 1065.01 C 1334.22 1056.84 1333.83 1047.06 1334 1038.51 C 1346.99 1038.11 1359.93 1038.21 1372.91 1038.38 C 1372.93 1046.98 1372.34 1055.86 1372.91 1064.43 C 1373.15 1068.14 1373.52 1072.92 1376.49 1075.54 C 1380.2 1069 1378.46 1046.43 1378.51 1038.23 A 1206.45 1206.45 0 0 1 1415.8 1038.25 C 1415.28 1058.66 1414 1079.11 1413.71 1099.5 C 1413.48 1115.09 1414.26 1130.86 1413.53 1146.41 C 1413.42 1148.83 1413.22 1151.54 1412.17 1153.77 C 1411.36 1155.49 1411.79 1154.86 1409.69 1155.68 L 1407.48 1154.15 C 1403.06 1147.04 1406.1 1099.37 1405.91 1087.54 C 1405.84 1083.43 1405.87 1079.32 1402.09 1076.66 C 1399.95 1075.15 1398.91 1075.47 1396.66 1076.13 C 1391.87 1081.75 1393.17 1138.94 1393.35 1150.9 C 1393.46 1158.65 1395.76 1171.59 1392.56 1178.77 C 1391.45 1181.25 1390.48 1181.67 1387.99 1182.42 C 1385.7 1181.54 1385.58 1181.37 1384.78 1178.82 C 1381.66 1168.77 1384.63 1134.45 1384.24 1121.63 C 1384.08 1116.49 1382.27 1111.8 1381.93 1106.9 C 1381.26 1097.31 1385.16 1088.36 1379.23 1079.67 L 1378.22 1079.72 C 1375.71 1085.69 1377.65 1092.8 1376.81 1099.11 C 1375.94 1105.59 1370.03 1110.84 1368.72 1117.97 C 1366.69 1129.03 1370.88 1144.66 1365.74 1154.51 C 1363.81 1155.97 1363.8 1156.21 1361.42 1156.11 C 1354.72 1148.69 1364.6 1119.35 1356.39 1107.83 C 1354.15 1106.68 1352.85 1105.96 1350.21 1106.81 C 1348.01 1107.52 1346.78 1108.91 1346.09 1111.02 C 1344.04 1117.33 1345.65 1127.1 1345.74 1133.7 C 1345.97 1149.55 1348.83 1213.13 1343.78 1223.86 L 1341.57 1224.64 C 1338.65 1221.77 1337.62 1218.26 1336.98 1214.31 C 1335.76 1206.77 1336.63 1198.57 1336.78 1190.96 C 1337.11 1173.89 1338.4 1152.55 1336.38 1135.87 C 1335.98 1132.58 1335.27 1129.02 1332.55 1126.87 L 1330.69 1127.13 C 1319.12 1139.14 1331.5 1235.98 1324.04 1247.38 C 1321.54 1247.77 1320.51 1247.49 1318.22 1246.46 C 1311.96 1237.54 1321.13 1166.53 1315.32 1149.06 C 1314.34 1146.1 1312.47 1142.84 1309.51 1141.54 C 1308.04 1140.89 1307.51 1141.42 1306.09 1141.88 C 1303.06 1145.24 1302.21 1148.81 1301.69 1153.26 C 1299.77 1169.7 1301.04 1187.57 1300.85 1204.21 A 4952.01 4952.01 0 0 0 1300.33 1290.54 C 1300.42 1313.35 1301.13 1336.42 1299.92 1359.19 C 1295.19 1356.88 1290.87 1354.24 1286.45 1351.41 C 1287.31 1304.93 1289.27 1257.01 1285.45 1210.7 C 1283.84 1191.28 1280.29 1171.97 1277.12 1152.76 C 1275.91 1160.96 1274.04 1203.85 1272.65 1206.17 C 1271.26 1208.48 1269.75 1208.59 1267.36 1209.25 C 1264.55 1206.9 1263.83 1203.93 1263.37 1200.35 C 1261.68 1187.35 1262.95 1172.69 1262.91 1159.53 L 1262.16 1088.46 C 1262.11 1080.11 1264.13 1068.26 1260.87 1060.64 C 1258.84 1059.49 1258.74 1059.55 1256.41 1059.86 C 1255.03 1061.36 1254.78 1061.81 1254.54 1063.93 C 1253.19 1076.21 1254.78 1090.28 1254.85 1102.76 C 1255 1131.83 1254.58 1160.98 1255.18 1190.04 C 1255.59 1209.57 1257.85 1230.59 1256.29 1250.02 C 1256 1253.7 1255.6 1258.12 1253.48 1261.27 C 1252.33 1262.99 1252.95 1262.41 1250.71 1262.93 C 1248.09 1260.78 1247.53 1256.34 1247.16 1253.15 C 1245.63 1239.78 1246.87 1225.17 1246.82 1211.68 L 1246.65 1117.84 C 1246.63 1109.16 1248.32 1091.42 1245.52 1083.98 C 1243.48 1082.12 1242.87 1081.3 1240.12 1080.68 C 1235.51 1085.83 1237.45 1099.08 1236.78 1105.97 C 1236.43 1109.53 1235.71 1111 1232.98 1113.27 C 1230.35 1113.37 1230.01 1113.28 1227.72 1111.98 C 1225.57 1105.55 1228.87 1097.96 1226.45 1092 C 1225.41 1089.43 1224.18 1089.13 1221.84 1088.17 C 1213.47 1089.16 1224 1123.29 1213.61 1134.64 C 1212.95 1134.17 1210.57 1132.82 1210.25 1132.24 C 1205.03 1122.73 1213.03 1072.41 1207.58 1059.03 L 1204.99 1058.24 C 1203.4 1059.11 1202.73 1059.42 1202.07 1061.27 C 1200.32 1066.11 1201.35 1074.62 1201.33 1079.9 C 1201.27 1093.55 1201.08 1107.26 1201.58 1120.9 C 1202.15 1136.1 1203.54 1151.66 1203.02 1166.84 C 1202.91 1170.07 1202.53 1174.03 1200.81 1176.85 C 1199.75 1178.58 1200.31 1177.97 1198.07 1178.57 C 1197.79 1178.38 1197.49 1178.22 1197.24 1177.99 C 1190.18 1171.4 1195.71 1137.65 1193.5 1126.52 C 1192.62 1122.14 1191.12 1118.64 1187.36 1116.05 C 1185.64 1115.98 1185.14 1115.85 1183.8 1116.99 C 1180.51 1119.79 1179.09 1124.4 1178.43 1128.51 C 1176.82 1138.52 1178.08 1149.36 1177.96 1159.5 C 1177.72 1180.02 1176.89 1200.51 1176.92 1221.03 C 1192.13 1245.58 1206.37 1270.65 1221.13 1295.47 C 1231 1312.08 1241.57 1328.26 1251.48 1344.85 C 1271.84 1378.88 1291.68 1413.13 1312.52 1446.88 L 1376.71 1550.25 C 1392.51 1575.15 1409.2 1599.54 1423.28 1625.49 C 1457.26 1603.38 1489.98 1578.24 1518.73 1549.6 A 768.397 768.397 0 0 0 1593.38 1463.06 C 1649.86 1387.8 1679.58 1321.8 1704.75 1231.05 C 1713.05 1201.11 1721.5 1170.89 1725.44 1140.01 C 1729.73 1106.41 1729.81 1072.41 1729.86 1038.58 C 1738.59 1038.25 1747.23 1038.32 1755.96 1038.56 C 1757.25 1068.49 1759.92 1099.03 1759.03 1128.95 C 1773.68 1100.97 1782.24 1069.74 1786.27 1038.52 C 1794.63 1038.09 1803.05 1038.28 1811.42 1038.28 C 1815.67 1065.99 1822.27 1093.71 1827.86 1121.18 C 1835.48 1093.45 1842.21 1066.44 1847.45 1038.14 C 1858.29 1037.89 1869.16 1038.06 1880 1038.06 C 1877.87 1169.96 1845.19 1312.58 1782.11 1429.14 C 1771.47 1448.81 1760.51 1469.03 1748.19 1487.69 C 1737.94 1503.23 1725.4 1518.48 1716.76 1534.88 C 1716.57 1535.23 1716.4 1535.59 1716.22 1535.94 C 1708.74 1530.77 1700.79 1526.36 1692.91 1521.83 C 1708.88 1490.47 1720.27 1458.45 1728.32 1424.21 L 1666.88 1497.32 C 1660.4 1494.5 1654.31 1490.49 1648.24 1486.88 C 1662.44 1456.29 1671.42 1422.56 1679.86 1390 C 1658.24 1418.21 1639.32 1447.7 1618.75 1476.62 C 1602.4 1499.63 1583.55 1519.73 1571.46 1545.49 C 1595.46 1528.1 1620.53 1512.35 1644.38 1494.6 A 334.257 334.257 0 0 1 1660.96 1506.17 C 1647.79 1528.88 1636.27 1553.18 1625.03 1576.9 C 1645.66 1561.86 1667.24 1547.63 1686.25 1530.54 A 503.179 503.179 0 0 1 1708.59 1544.01 C 1700.2 1556.46 1690.12 1568.26 1680.49 1579.78 A 734.618 734.618 0 0 1 1566.89 1690.63 C 1557.08 1698.31 1547.24 1706.45 1536.23 1712.37 C 1530.58 1707.44 1525.58 1701.56 1520.47 1696.07 A 583.126 583.126 0 0 0 1573.95 1625.18 C 1561.5 1633.25 1505.57 1662.82 1492.89 1660.22 C 1490.28 1659.69 1489.83 1659.3 1488.48 1657.24 C 1491.54 1644.58 1503.34 1630.94 1510.1 1619.55 C 1519.62 1603.54 1531.05 1584.18 1539 1567.51 L 1539.41 1566.63 L 1539.84 1566.17 L 1539.41 1566.63 z M 909.305 1128.64 C 908.933 1132.66 907.965 1137.4 908.995 1141.32 C 910.714 1141.21 910.075 1141.52 911.057 1140.8 C 912.301 1137.65 912.995 1135.8 912.409 1132.43 C 911.418 1130.99 910.687 1129.74 909.305 1128.64 z M 1158.14 1131.96 C 1153.16 1135.23 1151.86 1137.85 1150.67 1143.66 C 1148.71 1153.26 1149.4 1163.62 1148.85 1173.39 C 1153.79 1183.12 1160.02 1192.07 1165.35 1201.57 L 1167.37 1204.48 L 1168.49 1203.77 C 1169.78 1194.49 1170.69 1142.6 1168.01 1135.29 C 1165.3 1132.61 1163.66 1131.81 1159.85 1131.9 C 1159.28 1131.91 1158.71 1131.94 1158.14 1131.96 z M 296.414 1155.67 C 296.32 1156.01 296.222 1156.34 296.132 1156.67 C 290.14 1179.02 289.737 1205.37 288.892 1228.44 C 288.526 1238.45 289 1249.64 286.67 1259.42 C 286.036 1262.08 284.378 1265.34 281.874 1266.68 C 280.721 1267.29 279.437 1266.67 278.232 1266.43 C 264.362 1254.98 241.561 1196.07 235.217 1176.78 C 233.793 1214.8 236.196 1252.36 237.052 1290.3 C 253.701 1311.95 266.684 1336.97 282.308 1359.48 L 291.022 1371.53 C 287.028 1354.4 273.278 1281.53 280.689 1268.66 C 283.197 1268.03 284.405 1268.26 286.697 1269.56 C 296.039 1274.85 332.703 1327.53 342.908 1340.04 C 340.181 1325.4 337.793 1310.51 334.287 1296.04 C 327.613 1268.48 318.248 1241.62 311.153 1214.17 C 308.979 1205.76 299.985 1158.86 296.414 1155.67 z M 1756.43 1166.79 C 1741.07 1195.52 1733.15 1227.7 1724.2 1258.83 C 1715.89 1287.72 1706.47 1315.98 1704.12 1346.16 A 945.992 945.992 0 0 0 1729.77 1310.7 C 1737.01 1300.06 1743.99 1288.2 1752.5 1278.56 C 1758.77 1280.42 1765.07 1282.19 1771.22 1284.43 C 1769.62 1311.98 1765.41 1340.63 1759.11 1367.51 L 1766.26 1357.52 C 1781.82 1334.86 1798.76 1311.69 1811.51 1287.34 C 1810.26 1253.9 1813.32 1220.41 1812.43 1186.96 C 1800.27 1217.72 1785.35 1246.62 1771.66 1276.62 A 706.358 706.358 0 0 0 1754.22 1270.72 C 1755.59 1257.71 1761.73 1175.05 1756.93 1167.3 C 1756.8 1167.1 1756.6 1166.96 1756.43 1166.79 z"/>
<path transform="translate(0,0)" fill="rgb(0,0,0)" d="M 379.665 1144.17 C 377.257 1171.45 379.065 1200.16 379.114 1227.58 C 379.13 1236.86 380.237 1247.76 378.624 1256.84 C 376.615 1258.84 376.387 1258.58 373.511 1258.78 C 371.099 1257.49 370.483 1257.37 369.768 1254.52 C 368.245 1248.45 369.676 1233.11 369.673 1225.74 L 369.762 1136.1 C 369.793 1121.91 371.023 1106.46 369.574 1092.41 C 369.337 1090.11 368.752 1088.61 367.588 1086.63 C 364.961 1085.02 364.498 1084.97 361.397 1084.94 C 358.975 1087.09 358.256 1088.95 357.789 1092.16 C 356.484 1101.1 357.644 1111.04 357.56 1120.11 A 5934.41 5934.41 0 0 0 357.306 1196.46 C 357.296 1203.04 358.46 1212.48 356.906 1218.66 C 356.522 1220.18 355.323 1220.41 354.061 1221.19 C 351.522 1221.2 351.176 1221.32 349.103 1219.92 C 346.631 1211.59 348.566 1157.2 348.704 1143.88 C 349.067 1108.73 349.653 1073.43 348.361 1038.3 A 985.288 985.288 0 0 1 387.133 1038.25 C 387.892 1045.99 386.505 1056.01 390.012 1063.09 C 393.691 1056.83 392.474 1045.43 392.438 1038.18 A 2691.61 2691.61 0 0 1 447.639 1038.2 C 447.67 1044.45 446.313 1056.31 448.725 1062 C 449.322 1063.41 449.392 1062.97 451.134 1063.62 C 454.8 1058.61 453.095 1044.72 453.023 1038.22 A 1095.44 1095.44 0 0 1 498.95 1038.4 L 498.64 1133.71 C 498.638 1146.63 500.234 1160.35 499.192 1173.13 C 498.96 1175.98 498.394 1177.99 496.841 1180.38 C 494.583 1181.41 494.609 1181.39 492.212 1180.75 C 490.68 1178.74 490.11 1177.17 489.869 1174.7 C 489.239 1168.25 489.909 1161.27 489.848 1154.75 A 1880.91 1880.91 0 0 1 489.65 1103.82 C 489.654 1098.28 489.543 1092.16 485.4 1088.02 L 483.294 1088.09 C 473.764 1097.6 485.131 1157.82 477.193 1174.61 L 474.092 1174.94 C 463.473 1160.86 478.138 1122.75 466.554 1110.48 C 465.338 1109.19 464.602 1109.52 462.961 1109.4 C 460.873 1110.54 459.389 1111.29 458.462 1113.59 C 454.004 1124.66 462.202 1179.9 456.563 1192.22 C 455.455 1194.65 454.376 1195.22 452.014 1196.22 C 442.743 1191.89 454.552 1138.89 446.085 1130.94 C 444.053 1129.04 442.996 1128.92 440.432 1128.97 C 438.883 1130.19 437.884 1130.78 437.26 1132.76 C 433.808 1143.73 438.721 1195.17 440.393 1209.01 C 441.698 1219.8 447.354 1243.53 443.854 1253.5 C 443.122 1255.59 442.771 1255.8 440.928 1256.77 L 438.958 1255.91 L 440.335 1254.7 L 438.358 1255.38 C 433.557 1250.35 426.902 1173.13 425.813 1159.76 C 425.514 1154.18 425.758 1149.47 422.279 1144.76 L 420.745 1144.8 C 413.094 1158.34 411.329 1272.21 411.203 1296.09 C 411.146 1306.92 413.477 1329.16 410.344 1338.61 C 409.36 1341.57 408.137 1343.04 405.334 1344.33 C 399.01 1340.92 400.532 1329.53 400.564 1323.23 C 400.827 1271.91 399.011 1230.14 388.571 1179.58 C 386.249 1168.34 384.344 1155.84 380.082 1145.17 C 379.948 1144.84 379.804 1144.51 379.665 1144.17 z"/>
<path transform="translate(0,0)" fill="rgb(0,0,0)" d="M 528.131 1099.38 C 528.287 1095.38 528.603 1091.55 527.595 1087.63 C 526.29 1086.3 526.071 1085.66 524.187 1085.25 C 520.938 1084.55 516.323 1084.33 513.45 1086.12 C 512.379 1089.41 512.679 1092.94 512.64 1096.37 C 512.572 1102.35 513.812 1115.14 509.304 1119.55 C 506.83 1119.54 506.721 1119.26 504.721 1117.74 C 502.308 1111.2 503.992 1050.75 504.013 1038.4 C 515.372 1038.05 526.697 1038.18 538.057 1038.34 C 538.135 1050.25 539.449 1112.72 537.293 1119.79 C 536.514 1122.35 535.799 1122.97 533.448 1124.06 C 532.101 1123.82 530.911 1123.95 529.929 1122.89 C 525.909 1118.55 527.967 1105.09 528.131 1099.38 z"/>
<path transform="translate(0,0)" fill="rgb(0,0,0)" d="M 608.881 1178.09 C 608.879 1163.24 610.49 1145.66 607.541 1131.12 L 605.08 1131.09 C 602.804 1132.88 602.025 1135.06 601.302 1137.78 C 598.623 1147.89 598.694 1159.41 597.653 1169.81 C 593.565 1210.68 591.936 1251.54 590.403 1292.56 C 589.984 1303.77 591.186 1340.22 586.33 1348.16 C 584.125 1349.37 584.284 1349.46 581.876 1348.81 C 579.015 1345.66 578.26 1341.64 577.837 1337.51 C 575.682 1316.5 577.452 1294.29 576.869 1273.09 C 576.08 1244.4 572.971 1216.12 569.376 1187.67 C 568.299 1179.14 568.276 1165.93 564.064 1158.44 C 562.934 1156.43 562.59 1156.27 560.508 1155.66 C 551.891 1163.58 558.566 1230.86 552.016 1245.7 C 550.916 1248.19 550.185 1248.84 547.661 1249.7 C 547.004 1249.41 545.662 1248.88 545.118 1248.46 C 544.794 1248.2 544.565 1247.85 544.32 1247.52 C 540.885 1242.89 544.001 1059.02 543.938 1038.21 C 552.479 1037.94 561.064 1038.14 569.61 1038.17 C 569.534 1046.78 569.357 1055.19 570.931 1063.69 L 573.413 1064.85 L 572.4 1066.66 L 570.982 1063.68 L 573.562 1064.51 C 575.739 1055.96 575.254 1046.98 575.149 1038.24 A 1908.37 1908.37 0 0 1 628.201 1038.3 C 628.164 1046.91 627.963 1054.83 630.178 1063.22 L 631.666 1064.47 L 630.706 1064.38 L 632.224 1063.2 C 634.888 1055.79 633.94 1046.14 633.801 1038.33 A 686.677 686.677 0 0 1 665.683 1038.4 C 666.042 1067.36 665.016 1096.36 664.757 1125.33 C 664.625 1139.97 666.088 1156.02 664.626 1170.49 C 664.384 1172.88 664.05 1175.25 662.607 1177.24 C 661.764 1178.4 660.89 1178.25 659.591 1178.52 C 657.647 1177.36 656.821 1177.05 655.94 1174.84 C 650.838 1162.04 659.835 1118.78 652.403 1105.58 C 650.732 1104.54 650.545 1104 648.46 1104.21 C 647.098 1104.34 644.996 1104.74 644.033 1105.91 C 637.497 1113.83 646.361 1175.96 639.781 1183.85 C 636.945 1184.15 636.518 1184.2 633.965 1182.98 C 627.515 1173.57 633.766 1147.49 631.204 1135.2 C 630.594 1132.27 629.295 1129.04 626.44 1127.65 C 624.007 1126.47 621.954 1126.64 619.42 1127.2 C 615.717 1134.86 620.297 1222.07 618.051 1238.55 C 617.495 1242.63 616.692 1247.47 613.217 1250.09 C 612.897 1249.82 612.552 1249.58 612.257 1249.28 C 606.291 1243.33 608.818 1189.28 608.881 1178.09 z"/>
<path transform="translate(0,0)" fill="rgb(0,0,0)" d="M 677.077 1089.23 C 676.816 1098.87 678.004 1106.75 674.875 1116.21 L 674.879 1116.04 L 672.843 1114.71 C 670.003 1090.81 671.642 1062.75 672.072 1038.46 C 683.562 1038.18 694.969 1038.13 706.458 1038.47 C 707.155 1086.62 707.048 1134.83 706.998 1182.99 C 706.976 1203.83 708.502 1230.25 707.036 1250.21 C 706.733 1254.33 706.246 1257.53 703.007 1260.31 C 701.301 1260.04 701.103 1260.27 699.765 1258.93 C 696.012 1255.16 696.948 1250.14 697.06 1245.25 L 697.077 1148.66 C 697.153 1128.97 698.162 1108.92 696.94 1089.27 C 690.267 1088.74 683.757 1088.95 677.077 1089.23 z"/>
<path transform="translate(0,0)" fill="rgb(0,0,0)" d="M 725.511 1141.79 C 724.461 1166.03 724.731 1190.46 724.586 1214.73 C 724.53 1224.04 725.627 1234.07 724.41 1243.27 C 724.016 1246.25 723.639 1247.31 721.323 1249.18 C 718.593 1249.01 718.236 1248.59 715.991 1246.95 C 715.071 1245.51 714.524 1244.57 714.414 1242.82 C 712.888 1218.58 714.197 1193.37 713.982 1169 L 712.252 1038.49 C 720.56 1038.22 728.77 1038.26 737.076 1038.58 C 736.991 1046.18 736.463 1054.22 737.968 1061.71 C 738.531 1064.52 738.333 1065.24 740.691 1066.82 L 739.387 1066.81 C 744.886 1059.58 743.432 1047.32 743.437 1038.44 C 758.591 1037.78 773.996 1038.04 789.16 1038.53 C 789.161 1044.75 787.57 1058.92 790.564 1064.14 L 791.901 1063.78 C 795.918 1059.08 794.178 1044.69 794.103 1038.34 A 1014.85 1014.85 0 0 1 834.859 1038.26 C 834.865 1067.64 834.355 1097.15 835.104 1126.51 C 835.456 1140.34 838.775 1176.36 836.711 1187.53 C 836.185 1190.38 835.247 1191.28 833.014 1192.96 C 830.236 1193.04 829.796 1193.16 827.472 1191.71 C 822.989 1180.04 827.905 1122.79 826.344 1105.06 C 826.018 1101.35 825.21 1098.72 822.265 1096.24 C 820.677 1096.1 819.854 1095.69 818.44 1096.61 C 807.61 1103.67 818.22 1158.78 813.565 1172.74 C 812.739 1175.22 811.27 1176.57 808.977 1177.71 C 800.054 1175.63 809.691 1133.34 800.187 1123.06 C 797.979 1122.35 797.374 1122.13 795.121 1123.22 C 791.808 1124.81 788.996 1128.74 788.044 1132.21 C 782.762 1151.5 790.13 1241.13 785.639 1250.04 C 784.361 1252.57 784.068 1252.86 781.54 1253.67 L 779.413 1252.53 C 773.646 1244.26 776.116 1214.83 776.058 1203.5 C 776.042 1188.6 777.907 1166.59 774.828 1152.56 C 774.266 1150 774.061 1148.84 771.793 1147.32 C 766.865 1149.73 764.884 1165.36 763.968 1170.61 C 757.122 1209.82 755.376 1249.75 755.515 1289.48 C 755.586 1310.07 756.935 1331.53 755.585 1352.04 C 755.429 1354.41 754.933 1355.66 753.372 1357.42 C 750.789 1358.48 750.355 1358.88 747.668 1358.31 C 744.229 1354.89 743.899 1350.73 743.607 1346.07 C 742.596 1329.94 743.756 1312.95 743.695 1296.74 C 743.548 1257.48 742.475 1228.21 736.337 1189.3 C 733.817 1173.32 731.26 1156.96 725.511 1141.79 z"/>
<path transform="translate(0,0)" fill="rgb(0,0,0)" d="M 850.205 1113.5 C 850.359 1120.32 850.832 1126.14 848.215 1132.62 L 848.157 1132.28 L 844.548 1134.04 C 842.094 1131.32 841.138 1127.21 840.62 1123.66 C 839.341 1114.92 840.143 1105.45 840.096 1096.59 C 839.991 1077.16 840.232 1057.6 839.368 1038.19 C 849.527 1037.91 859.713 1038.11 869.876 1038.16 L 869.709 1084.8 C 863.199 1084.75 856.678 1084.87 850.166 1084.9 L 850.205 1113.5 z"/>
<path transform="translate(0,0)" fill="rgb(0,0,0)" d="M 1440.57 1138.7 C 1431.26 1167.15 1438.09 1218.17 1436.07 1249.45 C 1435.9 1252.06 1435.35 1252.99 1433.37 1254.58 C 1431.62 1254.26 1430.2 1254.31 1428.77 1253.14 C 1426.21 1251.03 1425.5 1248.03 1425.25 1244.85 C 1423.76 1225.49 1425.31 1204.98 1425.32 1185.5 C 1425.35 1157.22 1426 1128.57 1425.08 1100.32 C 1424.87 1094.04 1422.3 1088.3 1422.1 1082 C 1421.66 1067.87 1422.68 1053.61 1421.45 1039.51 L 1421.34 1038.3 C 1430.14 1038.04 1438.96 1038.25 1447.77 1038.38 C 1447.65 1045.95 1446.92 1054.11 1449.33 1061.41 C 1450.08 1063.69 1449.43 1063.01 1451.24 1063.89 C 1455.44 1057.4 1454.1 1045.94 1453.96 1038.42 C 1471.58 1037.65 1489.61 1037.95 1507.24 1038.46 C 1507.58 1044.5 1505.8 1059.36 1509.88 1063.63 L 1512.04 1063 C 1514.77 1059.04 1513.11 1043.83 1513.08 1038.51 C 1527.93 1037.91 1543.04 1038.02 1557.88 1038.73 C 1558.24 1051.82 1555.45 1063.59 1554.73 1076.46 C 1553.94 1090.58 1554.64 1105.08 1554.73 1119.23 C 1554.8 1131.36 1557.18 1160.73 1553.55 1170.57 L 1551.36 1171.42 C 1549.44 1171.07 1546.48 1171.19 1545.75 1168.97 C 1544.85 1166.24 1546.17 1158.73 1546.21 1155.33 C 1546.42 1139.21 1546.14 1123.07 1546.09 1106.95 C 1546.07 1099.35 1546.82 1091.19 1546.11 1083.65 C 1545.88 1081.2 1545.26 1079.6 1543.75 1077.62 L 1541.88 1077.4 C 1541.04 1077.95 1538.99 1078.94 1538.43 1079.66 C 1532.14 1087.84 1539.85 1166.17 1534.74 1179.59 C 1533.92 1181.75 1533.45 1181.85 1531.48 1182.8 C 1529.72 1182.35 1527.67 1181.55 1526.73 1179.84 C 1522.95 1172.96 1530.78 1137.34 1523.18 1127.55 C 1521.8 1125.77 1520 1124.62 1517.7 1124.71 C 1513.96 1124.86 1509.07 1128.23 1507.81 1131.69 C 1505.57 1137.83 1506.97 1148.8 1506.97 1155.6 L 1507.06 1218.42 C 1507.08 1227.74 1508.06 1238.16 1506.91 1247.35 C 1506.58 1249.98 1506.62 1250.72 1504.84 1252.64 L 1502.09 1252.7 C 1499.8 1250.87 1498.91 1249.84 1498.11 1246.97 C 1496.05 1239.58 1497.56 1229.62 1497.65 1221.92 L 1498.25 1164.97 C 1498.35 1153.86 1499.48 1141.5 1497.59 1130.57 C 1497.17 1128.12 1496.06 1125.98 1494.84 1123.84 C 1494.66 1123.54 1494.48 1123.24 1494.3 1122.94 C 1492.11 1123.56 1491.24 1123.8 1490.1 1126.03 C 1483.78 1138.41 1493.52 1208.65 1486.62 1220 L 1484.53 1220.49 C 1473.24 1213.36 1486.71 1174.83 1478.11 1165.23 C 1477.25 1164.28 1476.37 1164.59 1475.2 1164.55 C 1474.96 1164.78 1474.69 1165 1474.48 1165.26 C 1466.15 1175.68 1466.97 1327.71 1466.98 1350.6 C 1463.26 1349.16 1459.79 1347.17 1456.29 1345.3 C 1454.2 1305 1458.12 1263.1 1455.57 1222.6 C 1453.81 1194.65 1447.62 1165.81 1440.57 1138.7 z"/>
<path transform="translate(0,0)" fill="rgb(0,0,0)" d="M 1570.79 1119.75 C 1570.96 1132.51 1572.98 1190.21 1570.55 1198.39 C 1568.69 1200.34 1568.63 1200.63 1566.01 1201.07 L 1564.28 1199.37 C 1562.47 1192.96 1563.04 1049.16 1564.59 1038.44 A 527.895 527.895 0 0 1 1597.96 1038.49 C 1597.95 1051.59 1599.81 1134.76 1596.14 1140.01 C 1595.3 1141.21 1594.33 1140.89 1593 1141.02 C 1583.66 1134 1594.98 1100.51 1585.96 1088.66 C 1584.31 1086.49 1583.91 1086.22 1581.39 1085.99 C 1580.08 1086.68 1578.86 1087.34 1577.88 1088.49 C 1571.39 1096.08 1570.42 1110.32 1570.79 1119.75 z"/>
<path transform="translate(0,0)" fill="rgb(0,0,0)" d="M 1623.61 1142.79 C 1618.21 1170.47 1620.16 1200.75 1620.08 1228.92 C 1620.05 1237.44 1620.91 1247.14 1619.74 1255.52 C 1619.36 1258.19 1618.94 1259.28 1616.82 1260.88 C 1614.18 1260.47 1613.21 1260 1611.24 1258.2 C 1606.78 1222.63 1609.95 1184.37 1609.16 1148.46 C 1608.91 1137.52 1606.04 1126.94 1605.56 1115.99 C 1604.44 1090.25 1605.15 1064.18 1605.08 1038.41 A 426.114 426.114 0 0 1 1635.39 1038.51 A 595.463 595.463 0 0 0 1635.35 1051.03 C 1635.4 1054.66 1635.41 1061.65 1638.08 1064.23 C 1642.2 1058.3 1640.91 1045.86 1640.91 1038.67 C 1655.49 1037.82 1670.41 1038.01 1684.99 1038.68 C 1685.49 1047.82 1683.99 1057.63 1687.97 1066.09 L 1689.01 1065.97 C 1691.2 1057.98 1690.12 1047.07 1690.13 1038.72 A 514.801 514.801 0 0 1 1723.76 1038.8 C 1724.1 1057.9 1724.06 1119.88 1716.95 1134.9 C 1709.64 1126.08 1716.24 1087.43 1713.73 1074.38 C 1712.24 1072.75 1711.56 1071.98 1709.36 1071.55 C 1706.9 1072.95 1706.15 1074.87 1705.55 1077.57 C 1702.21 1092.47 1704.62 1110.71 1704.95 1126.02 A 3046.2 3046.2 0 0 1 1705.77 1188.35 C 1705.79 1191.99 1706.84 1200.74 1705.55 1203.73 C 1705.25 1204.44 1704.51 1204.89 1703.99 1205.47 C 1701.38 1205.53 1701.17 1205.36 1698.95 1203.94 C 1695.07 1194.81 1697.86 1145.95 1697.64 1133.03 C 1691.85 1125.79 1687.54 1116.79 1682.36 1109 C 1679.06 1143.24 1680.95 1178.81 1681 1213.22 C 1681.02 1220.56 1682.51 1237.42 1680.96 1243.75 C 1680.3 1246.46 1679.72 1246.73 1677.5 1248.01 C 1675.94 1247.77 1675.13 1248.03 1674.07 1246.7 C 1668.55 1239.85 1670.8 1209.76 1670.89 1199.49 C 1670.81 1180.54 1671.66 1160.94 1668.36 1142.25 C 1661.21 1171.55 1656.26 1203.49 1654.29 1233.59 C 1652.9 1254.95 1655.12 1333.09 1650.28 1345.89 C 1648.33 1347.21 1647.39 1347.26 1645.06 1347.17 C 1637.75 1341.01 1640.42 1315.07 1640.37 1306.03 C 1640.26 1287.42 1640.56 1268.78 1638.94 1250.22 C 1635.8 1214.25 1628.91 1178.49 1623.61 1142.79 z"/>
<path transform="translate(0,0)" fill="rgb(0,0,0)" d="M 1002.12 1061.6 C 1005.26 1056.4 1008.74 1051.52 1012.3 1046.59 C 1020.62 1050.61 1025.44 1050.85 1034.3 1048.16 A 537.221 537.221 0 0 1 1041.82 1065.09 L 1033.01 1068.56 C 1019.9 1071.44 1013.56 1067.51 1002.12 1061.6 z"/>
<path transform="translate(0,0)" fill="rgb(0,0,0)" d="M 987.967 1087.76 L 996.583 1072.49 C 1003.43 1077.05 1012.22 1081.56 1020.4 1082.73 C 1031 1084.25 1039.06 1080.29 1047.35 1074.25 A 516.567 516.567 0 0 1 1051.76 1080.82 C 1053.97 1084.17 1056.91 1087.88 1056.03 1092.12 L 1052.59 1094 C 1047.72 1096.2 1042.75 1098.19 1037.53 1099.43 C 1019.49 1103.74 1003.14 1096.87 987.967 1087.76 z"/>
<path transform="translate(0,0)" fill="rgb(0,0,0)" d="M 972.367 1114.41 C 975.548 1108.34 979.077 1102.47 982.527 1096.55 C 991.931 1104.73 1003.83 1110.56 1016.15 1112.61 C 1033.46 1115.48 1048.64 1110.78 1062.65 1100.76 C 1065.7 1105.47 1070.76 1111.11 1071.01 1116.77 C 1069.29 1119.91 1067.45 1120.17 1064.27 1121.69 A 107.534 107.534 0 0 1 1057 1124.76 C 1025.26 1136.75 1001.8 1127.71 972.367 1114.41 z"/>
<path transform="translate(0,0)" fill="rgb(0,0,0)" d="M 958.128 1139.2 C 960.628 1133.77 963.813 1128.66 966.827 1123.5 C 984.736 1134.13 1003.94 1142.37 1025.07 1142.87 C 1042.44 1143.29 1064.79 1139.02 1077.78 1126.71 C 1080.79 1131.13 1087.41 1138.69 1086.78 1144.24 L 1083.87 1145.99 A 218.151 218.151 0 0 1 1059.13 1155.16 C 1022.78 1165.87 990.449 1156.94 958.128 1139.2 z"/>
<path transform="translate(0,0)" fill="rgb(0,0,0)" d="M 942.79 1164.32 L 952.769 1148.76 C 964.167 1159.68 986.534 1166.34 1001.63 1169.41 C 1031.66 1175.52 1067.47 1170.79 1093.32 1153.88 C 1096.79 1158.86 1099.8 1163.87 1102.67 1169.21 L 1095.04 1173.48 A 155.155 155.155 0 0 1 1068.78 1183.69 C 1023.44 1196.86 983.203 1186.66 942.79 1164.32 z"/>
<path transform="translate(0,0)" fill="rgb(0,0,0)" d="M 928.658 1189.81 C 931.623 1184.84 934.256 1179.6 937.021 1174.51 C 953.713 1184.56 969.391 1191.82 988.458 1196.36 C 1029.28 1206.09 1071.76 1201.5 1107.8 1179.48 C 1110.25 1183.46 1113.58 1187.45 1115.66 1191.56 C 1116.79 1193.78 1116.81 1195.25 1115.96 1197.49 L 1111.26 1199.3 C 1097.43 1204.95 1083.51 1211.21 1068.9 1214.54 C 1020.03 1225.69 970.987 1216.23 928.658 1189.81 z"/>
<path transform="translate(0,0)" fill="rgb(0,0,0)" d="M 913.709 1213.92 C 916.58 1208.81 919.877 1203.94 923.067 1199.02 C 937.854 1212.18 962.915 1220.95 981.865 1225.65 C 1029.06 1237.35 1081.43 1230.72 1123.25 1205.57 C 1126.65 1211.07 1129.83 1216.72 1133.08 1222.3 A 335.831 335.831 0 0 0 1125.79 1225 C 1108.91 1232.8 1091.62 1239.74 1073.48 1243.99 C 1015.36 1257.61 963.492 1244.91 913.709 1213.92 z"/>
<path transform="translate(0,0)" fill="rgb(0,0,0)" d="M 899.2 1239.62 C 901.545 1234.63 904.375 1229.82 907.029 1224.98 C 925.16 1235.5 943.791 1245.18 963.912 1251.33 C 1023.26 1269.46 1083.45 1261.08 1137.82 1232.46 C 1140.88 1236.88 1147.94 1244.84 1147.13 1250.45 L 1143.74 1251.55 C 1120.44 1260.95 1097.06 1269.99 1072.27 1274.7 A 233.518 233.518 0 0 1 899.2 1239.62 z"/>
<path transform="translate(0,0)" fill="rgb(0,0,0)" d="M 882.705 1265.7 A 1113.35 1113.35 0 0 0 891.867 1250.79 C 917.048 1264.4 942.657 1276.87 970.628 1283.65 C 1020.62 1295.76 1071.34 1291.14 1119.52 1274.14 C 1131.11 1270.05 1143.2 1265.57 1153.7 1259.2 L 1163.57 1274.78 L 1156.22 1277.96 A 430.433 430.433 0 0 1 1101.24 1298.16 C 1019.7 1321.79 954.974 1305.57 882.705 1265.7 z"/>
<path transform="translate(0,0)" fill="rgb(0,0,0)" d="M 866.539 1290.45 C 869.233 1285.38 872.152 1280.4 874.968 1275.39 C 881.001 1278.05 886.917 1281.96 892.798 1285.06 C 907.359 1292.75 922.084 1299.87 937.68 1305.24 C 1017.88 1332.88 1094.58 1320.91 1169.22 1284.31 C 1171.27 1287.7 1173.9 1290.71 1175.93 1294.1 C 1177.12 1296.11 1178.06 1298.01 1177.55 1300.39 L 1173.73 1302.49 A 368.236 368.236 0 0 1 1097.01 1330.27 C 1016.48 1349.07 936.265 1333.7 866.539 1290.45 z"/>
<path transform="translate(0,0)" fill="rgb(0,0,0)" d="M 851.588 1316.53 L 859.872 1300.36 C 871.672 1305.42 883.051 1313.83 894.817 1319.54 C 934.818 1338.93 978.155 1348.41 1022.51 1349.36 A 331.548 331.548 0 0 0 1071.96 1347.03 C 1101.15 1343.24 1162.32 1328.79 1183.57 1308.43 C 1184.89 1310.77 1186.28 1312.93 1187.85 1315.11 C 1190.45 1318.71 1193.13 1321.84 1192.37 1326.52 L 1188.07 1328.89 C 1157.77 1343.36 1125.79 1355.47 1092.79 1362.08 C 1012.61 1378.15 919.951 1362.18 851.588 1316.53 z"/>
<path transform="translate(0,0)" fill="rgb(0,0,0)" d="M 835.469 1341.72 C 838.202 1336.1 841.604 1330.83 844.868 1325.51 C 851.999 1329.29 858.575 1334.84 865.763 1338.85 C 883.608 1348.8 903.552 1356.78 923.02 1363.05 C 1016.99 1393.35 1113.54 1380.22 1200.47 1335.81 C 1203.39 1340.7 1207.6 1345.7 1208.47 1351.39 C 1207.29 1353.98 1206.3 1353.86 1203.85 1354.99 C 1173.18 1368.75 1141.46 1381.13 1108.66 1388.79 A 362.692 362.692 0 0 1 835.469 1341.72 z"/>
<path transform="translate(0,0)" fill="rgb(0,0,0)" d="M 818.767 1368.05 C 821.742 1362.77 825.069 1357.67 828.279 1352.53 C 839.303 1356.3 850.714 1364.54 861.307 1369.82 C 891.121 1384.67 922.18 1395.93 954.979 1402.1 A 394.158 394.158 0 0 0 1163.04 1385.18 C 1180.92 1378.67 1198.53 1371.37 1214.29 1360.57 C 1217.04 1365.16 1222.19 1370.72 1222.66 1376.05 C 1221.24 1379.36 1219.33 1379.5 1216.16 1381.03 C 1186.95 1395.17 1157.48 1406.69 1126.07 1414.96 C 1019.86 1442.91 912.67 1422.67 818.767 1368.05 z"/>
<path transform="translate(0,0)" fill="rgb(0,0,0)" d="M 802.287 1394.86 C 805.438 1388.92 809.066 1383.25 812.617 1377.54 C 849.669 1402.18 893.403 1418.65 936.637 1428.45 A 408.36 408.36 0 0 0 1178.47 1410.66 C 1196.25 1403.72 1214.08 1396.11 1230.25 1385.89 C 1233.78 1391.99 1237.03 1398.27 1240.33 1404.49 C 1238.11 1405.03 1235.92 1405.69 1233.73 1406.32 C 1211.91 1414.86 1191.41 1425.87 1169.07 1433.37 A 431.174 431.174 0 0 1 867.887 1426.38 C 845.23 1417.45 824.05 1405.68 802.287 1394.86 z"/>
<path transform="translate(0,0)" fill="rgb(0,0,0)" d="M 786.082 1420.52 C 789.069 1415.31 792.498 1410.39 795.852 1405.41 C 838.494 1428.67 884.003 1448.18 931.625 1458.44 A 448.229 448.229 0 0 0 1182.23 1441.4 C 1203.73 1433.72 1225.96 1424.71 1245.19 1412.31 L 1255.24 1427.81 L 1247.79 1432.25 A 563.297 563.297 0 0 1 1148.02 1470.87 C 1023.68 1504.56 897.219 1484.15 786.082 1420.52 z"/>
<path transform="translate(0,0)" fill="rgb(0,0,0)" d="M 769.434 1447.21 C 772.518 1441.53 776.08 1436.07 779.464 1430.57 C 801.348 1448.27 865.494 1471.82 894.044 1479.89 A 482.612 482.612 0 0 0 1261.72 1438.15 A 1217.86 1217.86 0 0 1 1270.66 1453.93 L 1262.92 1457.92 C 1234.81 1473.13 1203.64 1485.13 1173.2 1494.7 A 490.154 490.154 0 0 1 842.802 1481.99 C 817.466 1472.06 793.525 1459.8 769.434 1447.21 z"/>
<path transform="translate(0,0)" fill="rgb(0,0,0)" d="M 752.267 1473.34 C 755.67 1467.7 759.262 1462.21 762.886 1456.71 C 796.692 1480.93 865.808 1504.7 906.575 1514.67 A 507.284 507.284 0 0 0 1219.96 1490.55 C 1239.23 1482.68 1258.81 1474.5 1276.64 1463.66 C 1280.19 1469.04 1283.49 1474.59 1286.85 1480.09 L 1279.66 1483.68 A 935.241 935.241 0 0 1 1201.65 1516.88 A 519.022 519.022 0 0 1 841.66 1514.26 A 570.181 570.181 0 0 1 788.143 1491.5 C 776.098 1485.61 764.466 1478.91 752.267 1473.34 z"/>
<path transform="translate(0,0)" fill="rgb(0,0,0)" d="M 736.446 1499.77 L 746.744 1482.69 C 866.092 1553.65 1019.3 1578.8 1154.52 1544.36 C 1202.2 1532.22 1250.08 1513.6 1293.01 1489.53 L 1297.18 1496 L 1303 1506.44 C 1259.09 1527.37 1214.83 1546.67 1167.78 1559.6 C 1060.44 1589.08 940.539 1581.95 835.989 1544.87 A 552.42 552.42 0 0 1 780.496 1522 C 769.55 1516.78 746.895 1501.7 736.446 1499.77 z"/>
<path transform="translate(0,0)" fill="rgb(0,0,0)" d="M 736.198 1500.99 L 736.446 1499.77 L 736.198 1500.99 z"/>
<path transform="translate(0,0)" fill="rgb(0,0,0)" d="M 734.083 1504.06 L 734.792 1503.08 L 734.083 1504.06 z"/>
<path transform="translate(0,0)" fill="rgb(0,0,0)" d="M 732.239 1506.91 L 734.083 1504.06 L 732.239 1506.91 z"/>
<path transform="translate(0,0)" fill="rgb(0,0,0)" d="M 720.781 1524.32 C 723.967 1518.71 727.407 1511.19 732.239 1506.91 L 733.159 1509.37 C 740.94 1516.57 751.882 1521.22 761.333 1525.91 A 603.262 603.262 0 0 0 879.089 1570.67 A 575.947 575.947 0 0 0 1230.53 1551.53 C 1257.54 1541.31 1284.13 1529.81 1309.03 1515.1 L 1319.31 1531.83 L 1311.03 1536.13 C 1257.74 1562.27 1202.95 1583.79 1144.77 1596.26 C 1025.62 1621.78 895.392 1606.27 784.172 1557.32 C 762.514 1547.78 740.664 1537.2 720.781 1524.32 z"/>
<path transform="translate(0,0)" fill="rgb(0,0,0)" d="M 704.103 1551.22 C 706.613 1545.49 709.87 1539.93 712.802 1534.39 C 755.42 1560.34 803.324 1580.87 851.29 1594.56 A 617.823 617.823 0 0 0 1325.92 1541.48 C 1329.38 1546.71 1332.53 1552.18 1335.81 1557.52 C 1332.86 1559.52 1329.55 1561.11 1326.4 1562.79 C 1281.37 1586.74 1227.75 1606.04 1178.35 1618.94 A 625.875 625.875 0 0 1 704.103 1551.22 z"/>
<path transform="translate(0,0)" fill="rgb(0,0,0)" d="M 686.508 1578.18 C 689.626 1572.44 693.001 1566.94 696.51 1561.44 A 653.375 653.375 0 0 0 856.92 1628.22 A 648.217 648.217 0 0 0 1266.44 1603.12 C 1292.33 1592.79 1318.36 1581.58 1342.44 1567.48 A 674.967 674.967 0 0 1 1351.78 1584.16 L 1345.24 1587.63 A 871.91 871.91 0 0 1 1237.19 1633.15 A 658.679 658.679 0 0 1 785.33 1624.62 C 751.05 1611.49 719.313 1594.42 686.508 1578.18 z"/>
<path transform="translate(0,0)" fill="rgb(0,0,0)" d="M 669.157 1604.18 C 672.509 1598.5 676.296 1593.05 679.943 1587.56 C 720.459 1614.3 786.26 1640.05 833.412 1653.6 A 689.498 689.498 0 0 0 1358.3 1593.67 L 1368 1610.06 L 1358.07 1615.07 A 594.651 594.651 0 0 1 1309.09 1638.83 C 1138.36 1712.72 956.115 1719.6 781.163 1656.17 A 664.611 664.611 0 0 1 708.136 1623.92 C 695.669 1617.57 683.058 1609.55 670.068 1604.52 C 669.766 1604.4 669.461 1604.29 669.157 1604.18 z"/>
<path transform="translate(0,0)" fill="rgb(0,0,0)" d="M 654.33 1630.55 C 657.327 1625.1 660.612 1619.8 663.804 1614.47 C 718.297 1646.28 779.535 1672.16 840.643 1688.01 A 714.502 714.502 0 0 0 1271.06 1666.77 C 1306.96 1653.68 1341.86 1638.96 1374.82 1619.52 C 1378.31 1624.41 1381.59 1629.48 1384.96 1634.46 L 1375.49 1640.31 C 1328.32 1667.57 1265.23 1690.98 1212.83 1705.39 C 1022.92 1757.62 824.532 1727.31 654.33 1630.55 z"/>
</svg>